<?xml version="1.0" standalone="no"?>
<!DOCTYPE svg PUBLIC "-//W3C//DTD SVG 20010904//EN"
 "http://www.w3.org/TR/2001/REC-SVG-20010904/DTD/svg10.dtd">
<svg version="1.0" xmlns="http://www.w3.org/2000/svg"
 width="626.000000pt" height="626.000000pt" viewBox="0 0 626.000000 626.000000"
 preserveAspectRatio="xMidYMid meet">

<g transform="translate(0.000000,626.000000) scale(0.100000,-0.100000)"
fill="#000000" stroke="none">
<path d="M4270 6130 c-141 -20 -237 -72 -284 -153 -34 -59 -58 -182 -45 -230
33 -120 187 -221 374 -247 65 -8 551 -4 566 6 25 15 410 2 394 -14 -3 -3 -65
-18 -138 -32 -143 -30 -281 -77 -422 -145 -124 -61 -427 -238 -435 -256 -4 -8
-15 -29 -25 -47 l-17 -34 29 -31 c17 -18 54 -67 83 -109 30 -43 56 -78 59 -78
3 0 69 35 146 77 150 82 274 145 342 174 29 12 43 25 43 37 0 10 18 44 40 74
72 101 218 178 438 233 l94 23 131 -64 c110 -53 140 -64 182 -64 27 0 57 6 66
13 27 20 59 85 59 117 l0 30 68 0 c84 0 114 8 110 28 -4 22 -107 61 -180 69
-59 6 -64 9 -142 80 -187 172 -426 311 -666 389 -141 46 -493 135 -585 148
-82 12 -222 14 -285 6z m467 -68 c326 -78 502 -136 661 -219 243 -125 432
-276 502 -399 35 -60 38 -90 10 -99 -29 -9 -99 33 -82 50 4 4 3 5 -3 4 -12 -3
-58 11 -65 20 -3 3 -22 15 -42 25 -21 11 -38 24 -38 30 0 6 5 5 12 -2 15 -15
32 -16 23 -1 -11 16 -203 101 -224 98 -3 0 17 -11 44 -25 28 -13 43 -24 34
-24 -23 0 -129 38 -147 52 -8 7 -17 12 -19 11 -11 -9 -33 -1 -33 11 0 17 -60
33 -69 18 -7 -11 -91 -5 -91 7 0 3 -57 7 -127 9 -128 3 -148 6 -124 21 19 12
3 19 -49 20 -63 3 -62 3 -97 -3 -35 -5 -41 1 -20 24 6 8 0 4 -15 -9 -26 -23
-28 -23 -230 -18 -112 3 -215 8 -230 12 -24 6 -26 5 -21 -14 3 -12 1 -21 -6
-21 -6 0 -11 5 -11 11 0 5 -4 8 -9 5 -10 -7 -97 22 -129 42 -13 8 -21 21 -18
27 3 8 -2 11 -15 8 -15 -4 -18 -2 -12 13 6 17 5 17 -10 5 -18 -14 -20 -12 -11
13 3 9 10 13 15 10 14 -9 10 6 -6 23 -14 13 -18 13 -40 -1 -25 -16 -25 -16
-25 12 0 16 3 32 7 36 4 4 8 33 8 65 0 33 6 65 12 72 6 8 12 17 12 22 1 17 18
35 49 51 17 9 32 14 32 11 0 -2 22 4 48 14 71 28 85 30 237 26 123 -2 161 -7
312 -43z m-717 -192 c5 0 7 -7 4 -15 -4 -8 -11 -15 -16 -15 -6 0 -8 7 -4 15 3
9 0 15 -8 15 -11 0 -12 5 -3 25 l12 25 3 -25 c2 -14 7 -25 12 -25z m-49 -83
c-13 -13 -26 -3 -16 12 3 6 11 8 17 5 6 -4 6 -10 -1 -17z m99 -6 c0 -12 -20
-25 -27 -18 -7 7 6 27 18 27 5 0 9 -4 9 -9z m-54 -68 c-5 -13 -4 -14 9 -3 9 7
18 10 22 6 8 -8 -16 -33 -36 -38 -17 -4 -25 43 -9 54 10 6 10 8 0 8 -7 0 -10
5 -6 11 10 16 27 -18 20 -38z m-36 21 c0 -8 -5 -12 -10 -9 -6 4 -8 11 -5 16 9
14 15 11 15 -7z m90 -57 c0 -7 -5 -18 -11 -24 -13 -13 -39 -6 -39 9 0 5 4 7 9
4 5 -3 11 1 15 9 7 18 26 20 26 2z m26 -2 c-3 -9 1 -18 9 -21 8 -4 15 -19 15
-35 0 -21 4 -27 15 -23 9 4 15 0 15 -10 0 -21 -9 -20 -40 4 -20 16 -22 22 -11
29 8 5 9 11 3 15 -5 3 -13 -2 -16 -11 -5 -12 -9 -14 -18 -5 -9 9 -9 15 0 24 7
7 12 20 12 30 0 10 5 18 11 18 6 0 8 -7 5 -15z m277 -19 c9 0 17 -5 17 -11 0
-7 -10 -11 -22 -9 -13 1 -31 3 -40 3 -10 1 -18 8 -18 17 0 11 6 13 23 8 12 -4
30 -8 40 -8z m497 -17 c0 -5 -9 -9 -20 -9 -22 0 -27 16 -7 23 15 5 27 -1 27
-14z m70 4 c0 -6 -13 -11 -30 -11 -27 1 -37 8 -26 19 10 9 56 3 56 -8z m-520
-3 c0 -5 -4 -10 -10 -10 -5 0 -10 5 -10 10 0 6 5 10 10 10 6 0 10 -4 10 -10z
m130 -8 c0 -10 -14 -12 -57 -9 -77 6 -80 24 -3 23 42 -1 60 -5 60 -14z m150 8
c0 -6 -10 -11 -22 -11 -13 -1 -44 -3 -70 -5 -42 -2 -57 3 -44 17 10 9 136 8
136 -1z m70 -2 c0 -4 -13 -8 -30 -8 -16 0 -30 4 -30 9 0 5 14 9 30 9 17 -1 30
-5 30 -10z m50 2 c0 -5 -6 -10 -14 -10 -8 0 -18 5 -21 10 -3 6 3 10 14 10 12
0 21 -4 21 -10z m-670 -20 c0 -5 -4 -10 -10 -10 -5 0 -10 5 -10 10 0 6 5 10
10 10 6 0 10 -4 10 -10z m38 -22 c-6 -18 -28 -21 -28 -4 0 9 7 16 16 16 9 0
14 -5 12 -12z m1157 2 c3 -5 -1 -10 -9 -10 -8 0 -18 5 -21 10 -3 6 1 10 9 10
8 0 18 -4 21 -10z m-1137 -22 c-3 -7 -15 -14 -29 -16 -24 -4 -24 -3 -4 12 24
19 38 20 33 4z m32 -7 c0 -12 -20 -25 -27 -18 -7 7 6 27 18 27 5 0 9 -4 9 -9z
m511 2 c26 16 34 2 15 -28 -19 -29 -52 -35 -42 -7 5 15 5 15 -6 1 -9 -10 -31
-16 -67 -18 -29 -1 -58 -4 -62 -7 -11 -6 -12 17 -1 32 9 14 62 24 62 11 0 -5
7 -4 15 3 8 6 19 9 24 6 5 -4 13 -1 16 5 5 7 11 7 17 1 7 -7 16 -7 29 1z m109
0 c0 -2 -5 -13 -10 -24 -13 -24 -35 -25 -26 -2 5 13 0 11 -18 -6 -31 -29 -45
-21 -23 13 12 18 25 24 47 24 16 -1 30 -3 30 -5z m110 -3 c0 -4 -8 -14 -18
-23 -22 -20 -65 -19 -57 2 4 11 0 9 -15 -4 -25 -23 -35 -16 -15 11 10 15 25
21 59 21 25 1 46 -2 46 -7z m40 2 c0 -13 -39 -46 -46 -40 -8 9 19 48 33 48 7
0 13 -4 13 -8z m40 -1 c0 -5 10 -7 23 -3 20 5 21 4 8 -12 -8 -9 -19 -15 -25
-13 -6 3 -19 0 -29 -5 -27 -14 -33 -1 -12 22 19 21 35 26 35 11z m-750 -11 c0
-5 7 -10 16 -10 14 0 15 -2 3 -17 -13 -15 -14 -15 -17 0 -4 18 -32 24 -32 7 0
-5 -7 -10 -15 -10 -23 0 -18 19 8 30 30 12 37 12 37 0z m828 -2 c-3 -7 -15
-15 -28 -16 -21 -3 -22 -2 -11 12 16 19 44 21 39 4z m-675 -24 c-4 -12 -8 -13
-14 -3 -9 15 -2 32 11 24 5 -3 6 -13 3 -21z m34 -1 c-15 -16 -17 -16 -17 -1 0
9 6 18 13 21 20 7 22 -2 4 -20z m69 18 c19 16 28 5 16 -18 -11 -19 -62 -26
-62 -8 0 17 24 38 28 25 3 -8 8 -7 18 1z m614 -3 c0 -10 2 -10 8 -1 10 16 70
10 195 -18 48 -11 64 -29 26 -29 -13 0 -18 4 -13 13 6 9 5 9 -7 0 -16 -13 -67
-11 -78 3 -3 5 -26 10 -51 11 -65 3 -110 13 -110 23 0 6 7 10 15 10 8 0 15 -6
15 -12z m-750 -10 c0 -13 -24 -21 -28 -10 -2 7 -8 10 -13 6 -5 -3 -9 -1 -9 4
0 6 11 9 25 8 14 0 25 -4 25 -8z m1210 -38 c8 -5 11 -10 5 -10 -5 0 -17 5 -25
10 -8 5 -10 10 -5 10 6 0 17 -5 25 -10z m414 -30 c66 -21 85 -39 44 -41 -135
-9 -142 -8 -165 24 -13 17 -23 35 -23 40 0 12 60 3 144 -23z m-416 -10 c28
-14 52 -28 52 -32 0 -4 -26 -6 -57 -5 -31 2 -75 0 -97 -4 -41 -6 -41 -7 14 -9
l55 -2 -83 -14 c-126 -21 -259 -61 -345 -105 -78 -39 -103 -47 -92 -29 4 6 -9
9 -34 6 -33 -3 -39 -1 -34 13 4 9 3 13 -2 9 -4 -4 -15 -2 -23 5 -13 10 -14 9
-7 -3 7 -12 6 -13 -6 -3 -9 7 -25 11 -37 8 -12 -2 -24 1 -27 6 -4 5 -12 6 -18
2 -7 -4 -34 -7 -62 -6 -27 1 -43 -1 -35 -4 8 -2 22 -7 30 -10 33 -13 129 -27
181 -28 20 0 42 -6 48 -12 11 -13 11 -14 -8 -17 -13 -2 -101 -116 -117 -152
-11 -26 -35 -42 -146 -97 -73 -36 -183 -93 -245 -127 -62 -34 -117 -59 -123
-55 -20 12 -9 32 30 54 22 12 40 25 40 28 0 3 -20 -7 -44 -21 -25 -14 -47 -26
-49 -26 -2 0 -16 17 -29 38 -14 20 -39 52 -56 70 -30 32 -31 35 -19 73 6 21
17 39 24 39 7 0 16 6 20 13 4 8 40 32 78 54 325 187 355 203 385 203 11 0 20
5 20 10 0 6 8 10 18 10 10 0 22 4 28 9 15 15 211 80 275 91 32 5 87 15 122 21
52 9 280 27 312 24 6 -1 34 -12 63 -25z m72 -79 c0 -4 -6 -13 -12 -21 -11 -12
-10 -12 5 0 14 10 21 10 30 1 8 -8 7 -16 -8 -30 -25 -24 -71 -12 -61 15 5 13
3 14 -6 6 -9 -7 -18 -6 -32 4 -10 7 -22 11 -27 9 -4 -3 -11 -1 -14 5 -4 7 6 9
29 7 20 -3 39 -1 41 3 6 9 55 10 55 1z m70 -53 c0 -5 4 -7 9 -4 5 4 11 0 14
-6 3 -10 9 -10 25 -1 18 11 40 10 81 -3 18 -6 -4 -33 -38 -45 -30 -12 -48 3
-26 21 8 7 15 17 15 23 0 5 -10 -2 -23 -16 -25 -30 -42 -36 -33 -12 7 18 -15
20 -32 3 -9 -9 -12 -9 -12 2 0 7 -3 11 -6 7 -3 -3 -12 0 -19 6 -11 10 -10 15
2 29 15 17 43 14 43 -4z"/>
<path d="M4094 5984 c-18 -14 -18 -15 4 -4 12 6 22 13 22 15 0 8 -5 6 -26 -11z"/>
<path d="M4045 5820 c-3 -5 -1 -10 4 -10 6 0 11 5 11 10 0 6 -2 10 -4 10 -3 0
-8 -4 -11 -10z"/>
<path d="M4247 5689 c7 -7 15 -10 18 -7 3 3 -2 9 -12 12 -14 6 -15 5 -6 -5z"/>
<path d="M5085 5660 c-7 -12 -10 -11 40 -15 31 -3 36 -1 22 7 -10 5 -21 7 -24
4 -4 -3 -12 -1 -19 5 -8 7 -14 7 -19 -1z"/>
<path d="M5785 5480 c-7 -12 12 -50 26 -50 6 0 6 8 -1 21 -15 28 -6 35 26 20
19 -8 25 -17 21 -31 -3 -11 -1 -18 4 -14 14 9 10 30 -9 47 -20 19 -57 22 -67
7z"/>
<path d="M5185 5410 c-3 -6 1 -7 9 -4 18 7 21 14 7 14 -6 0 -13 -4 -16 -10z"/>
<path d="M5154 5314 c-18 -14 -18 -15 4 -4 12 6 22 13 22 15 0 8 -5 6 -26 -11z"/>
<path d="M4704 5222 c3 -5 49 -12 103 -16 54 -3 121 -9 148 -13 50 -6 61 1 15
11 -14 3 -36 8 -50 12 -39 12 -223 17 -216 6z"/>
<path d="M4568 5113 c12 -2 30 -2 40 0 9 3 -1 5 -23 4 -22 0 -30 -2 -17 -4z"/>
<path d="M4763 5103 c15 -2 37 -2 50 0 12 2 0 4 -28 4 -27 0 -38 -2 -22 -4z"/>
<path d="M4868 5093 c6 -2 18 -2 25 0 6 3 1 5 -13 5 -14 0 -19 -2 -12 -5z"/>
<path d="M4795 5063 c-11 -3 -24 -10 -30 -15 -7 -7 -2 -9 15 -4 14 3 31 6 38
6 6 0 12 5 12 10 0 10 -3 11 -35 3z"/>
<path d="M4408 5020 c-60 -8 -33 -31 38 -32 32 -1 65 -6 73 -12 11 -8 13 -8 7
2 -5 9 9 12 61 12 51 -1 64 -3 50 -11 -9 -5 -23 -7 -30 -3 -9 5 -9 4 0 -6 10
-11 17 -11 40 0 16 8 33 14 39 15 6 0 19 8 28 18 17 16 16 17 -3 17 -12 0 -21
-4 -21 -10 0 -10 -218 -3 -235 9 -5 4 -27 4 -47 1z"/>
<path d="M504 6051 c-77 -36 -141 -93 -165 -146 -39 -84 -16 -217 40 -240 89
-37 106 -50 137 -110 53 -102 96 -107 197 -19 34 29 88 68 120 85 l59 31 142
-6 c197 -8 266 -16 266 -31 0 -29 -135 -106 -250 -141 -96 -30 -135 -30 -202
1 -81 38 -135 31 -193 -25 -21 -20 -48 -33 -83 -40 -125 -23 -208 -107 -227
-230 -11 -77 -25 -109 -72 -163 -92 -107 -143 -229 -143 -344 0 -79 11 -103
49 -103 44 0 76 41 148 188 92 186 122 207 250 171 145 -41 215 -28 320 58 56
45 89 102 108 188 43 191 62 201 575 315 160 35 532 140 663 186 60 21 366 88
539 118 363 62 448 89 403 126 -11 9 -43 11 -122 5 -60 -4 -104 -3 -100 1 5 5
50 25 100 44 65 25 93 41 95 54 4 17 -1 18 -59 13 -35 -3 -127 -17 -204 -31
-186 -35 -545 -93 -620 -101 -33 -4 -71 -9 -85 -11 -14 -2 -90 -13 -170 -25
-144 -21 -377 -69 -448 -93 -76 -25 -485 11 -569 51 -20 9 -50 39 -72 72 -91
133 -168 181 -291 181 -62 0 -86 -5 -136 -29z m225 -16 c64 -22 96 -49 159
-133 31 -42 71 -84 87 -93 35 -21 213 -47 373 -56 62 -3 115 -9 117 -13 2 -4
-25 -26 -60 -50 -63 -41 -67 -42 -120 -35 -32 4 -55 11 -55 18 0 7 -4 6 -9 -2
-8 -12 -12 -12 -24 -2 -11 8 -17 9 -22 1 -4 -6 -16 -8 -28 -4 -12 4 -31 7 -41
8 -25 1 -33 26 -9 27 10 1 -9 7 -42 15 -68 15 -174 9 -156 -9 18 -18 13 -23
-31 -37 -53 -15 -113 -50 -157 -90 -18 -17 -39 -29 -47 -26 -8 3 -11 0 -8 -8
6 -16 -41 -48 -64 -44 -9 2 -33 32 -52 68 -35 65 -54 80 -137 110 -39 14 -56
52 -56 125 0 163 211 291 382 230z m2344 -36 c-12 -12 -617 -220 -643 -221 -8
0 -21 -5 -27 -10 -7 -6 -20 -8 -28 -4 -8 3 -15 2 -15 -2 0 -10 -54 -34 -58
-25 -9 27 -21 34 -46 27 -20 -5 -24 -9 -15 -15 8 -4 16 -3 20 3 4 6 12 7 18 4
15 -10 14 -37 -1 -35 -7 1 -26 -3 -41 -9 -43 -18 -54 -14 -48 21 0 4 -6 7 -15
7 -13 0 -14 -3 -4 -15 13 -16 6 -50 -9 -41 -5 3 -22 -1 -38 -9 -16 -8 -43 -16
-59 -18 -17 -2 -35 -6 -41 -10 -7 -4 -17 1 -23 10 -10 16 -10 15 -5 -4 8 -28
-10 -30 -39 -5 -20 16 -20 16 -7 -1 17 -22 6 -35 -17 -20 -13 8 -17 25 -17 67
0 48 -4 61 -24 77 -46 38 -122 12 -150 -52 -23 -51 -17 -75 23 -96 35 -19 67
-18 110 3 28 14 46 11 46 -7 0 -5 -8 -9 -18 -9 -10 0 -22 -3 -26 -7 -4 -5 -11
-8 -14 -9 -4 0 -14 -4 -22 -7 -8 -3 -41 -13 -74 -23 -54 -15 -59 -15 -75 0
-14 15 -14 18 -1 26 9 6 10 10 3 10 -15 0 -284 -69 -295 -76 -5 -3 -6 -15 -2
-26 5 -18 3 -20 -15 -15 -11 3 -21 1 -21 -3 0 -5 -15 -11 -32 -15 -102 -21
-220 -69 -263 -107 -25 -22 -45 -46 -45 -54 0 -8 -4 -14 -10 -14 -5 0 -12 -12
-16 -27 -29 -127 -72 -222 -95 -208 -5 4 -6 0 -3 -8 3 -9 -7 -24 -28 -38 -18
-13 -35 -26 -38 -30 -3 -4 -18 -11 -33 -14 -15 -4 -27 -11 -27 -16 0 -5 -3 -8
-7 -8 -5 1 -10 1 -13 -1 -20 -7 -61 -7 -66 1 -3 5 -10 7 -15 3 -6 -3 -18 -2
-27 2 -25 10 -50 15 -113 21 -63 5 -104 -10 -145 -55 -32 -34 -42 -21 -14 18
12 17 20 33 18 36 -8 7 -134 -195 -162 -258 -13 -32 -22 -58 -18 -58 9 0 38
54 47 88 3 12 13 22 21 22 8 0 13 4 9 9 -7 12 15 61 27 61 5 0 7 4 4 8 -2 4 4
19 15 32 27 35 23 7 -5 -45 -14 -24 -30 -62 -37 -84 -7 -23 -15 -41 -19 -41
-5 0 -11 -10 -14 -22 -3 -13 -20 -39 -37 -58 -40 -45 -63 -34 -67 36 -8 109
42 230 143 352 35 42 57 80 65 110 27 111 34 129 58 163 36 50 91 86 157 104
37 9 70 27 95 49 56 51 86 53 162 15 76 -39 118 -41 213 -9 112 36 201 88 286
166 43 39 103 86 134 103 101 57 380 114 835 171 73 9 245 36 515 81 39 6 106
20 150 29 98 22 123 24 108 9z m90 -100 c-13 -13 -135 -39 -293 -64 -58 -9
-124 -21 -148 -26 -24 -5 -47 -7 -52 -4 -4 3 -10 1 -12 -4 -1 -5 -25 -12 -53
-15 l-50 -6 45 21 c131 63 224 91 335 99 167 12 240 11 228 -1z m-1281 -146
c25 -22 23 -46 -8 -82 -31 -38 -90 -43 -118 -12 -51 57 69 146 126 94z m-859
-52 c16 -16 0 -26 -18 -11 -8 7 -15 8 -15 2 0 -13 -63 -9 -67 5 -7 21 80 24
100 4z m43 -18 c-7 -7 -26 7 -26 19 0 6 6 6 15 -2 9 -7 13 -15 11 -17z m611
-118 c8 -22 -4 -30 -22 -15 -12 10 -15 10 -15 -4 0 -19 -11 -21 -28 -4 -18 18
-15 26 11 31 41 8 48 7 54 -8z m-79 -29 c3 -14 0 -17 -12 -13 -8 3 -36 -1 -60
-9 -25 -9 -51 -14 -58 -12 -7 3 -19 -2 -26 -9 -11 -11 -17 -11 -28 -2 -8 7
-11 15 -7 20 11 10 105 29 115 23 4 -3 8 -1 8 5 0 10 26 20 50 17 8 -1 16 -10
18 -20z"/>
<path d="M640 5984 c-125 -19 -179 -48 -194 -106 -3 -16 -11 -28 -16 -28 -11
0 -3 -54 13 -85 15 -31 59 -75 92 -93 108 -57 237 -39 285 41 30 48 28 162 -2
207 -39 57 -93 76 -178 64z m115 -38 c47 -31 67 -74 62 -139 -3 -49 -8 -62
-37 -92 -47 -49 -96 -62 -163 -46 -29 8 -67 22 -85 33 -41 25 -82 84 -82 119
0 28 42 97 69 114 60 37 187 43 236 11z"/>
<path d="M1288 5693 c7 -3 16 -2 19 1 4 3 -2 6 -13 5 -11 0 -14 -3 -6 -6z"/>
<path d="M2395 5800 c-3 -5 -2 -10 4 -10 5 0 13 5 16 10 3 6 2 10 -4 10 -5 0
-13 -4 -16 -10z"/>
<path d="M2360 5790 c-9 -6 -10 -10 -3 -10 6 0 15 5 18 10 8 12 4 12 -15 0z"/>
<path d="M2315 5770 c3 -5 8 -10 11 -10 2 0 4 5 4 10 0 6 -5 10 -11 10 -5 0
-7 -4 -4 -10z"/>
<path d="M2080 5719 c0 -3 -13 -9 -30 -12 -19 -4 -30 -13 -30 -24 0 -15 1 -15
13 0 6 8 32 19 57 22 56 8 72 21 25 21 -19 0 -35 -3 -35 -7z"/>
<path d="M1025 5358 l-40 -43 43 40 c39 36 47 45 39 45 -2 0 -21 -19 -42 -42z"/>
<path d="M774 5372 c3 -5 -34 -19 -82 -30 -47 -12 -108 -35 -134 -52 -54 -33
-65 -27 -15 8 17 12 26 22 19 22 -21 0 -94 -72 -81 -81 9 -5 9 -15 0 -39 -20
-60 -14 -105 20 -139 59 -59 147 -64 255 -12 101 49 134 96 134 195 0 51 -3
57 -33 80 -19 15 -41 26 -50 26 -20 0 -23 16 -4 23 6 3 2 6 -11 6 -13 1 -21
-3 -18 -7z m29 -47 c51 -8 72 -41 63 -98 -11 -69 -46 -111 -127 -151 -97 -49
-162 -50 -214 -5 -25 22 -35 39 -35 60 0 41 22 89 56 121 45 42 165 91 204 83
8 -2 32 -6 53 -10z"/>
<path d="M975 5299 c-4 -6 -5 -12 -2 -15 2 -3 7 2 10 11 7 17 1 20 -8 4z"/>
<path d="M700 4986 c0 -2 7 -6 15 -10 8 -3 15 -1 15 4 0 6 -7 10 -15 10 -8 0
-15 -2 -15 -4z"/>
<path d="M1840 5733 c-14 -3 -29 -9 -35 -14 -7 -7 -3 -8 10 -4 16 6 16 3 -5
-14 -35 -29 -12 -26 33 4 35 24 46 37 30 34 -5 -1 -19 -4 -33 -6z"/>
<path d="M5622 4685 c-65 -28 -92 -54 -98 -96 -6 -35 -11 -41 -62 -64 -60 -28
-151 -92 -189 -134 -33 -36 -58 -87 -78 -155 -11 -36 -28 -69 -45 -85 -90 -84
-91 -189 -3 -259 l33 -27 0 -575 c0 -316 4 -642 8 -723 l7 -148 -36 -29 c-65
-52 -73 -167 -16 -229 13 -14 27 -42 31 -61 32 -175 161 -318 336 -373 58 -18
71 -26 79 -49 11 -32 45 -48 100 -48 47 0 87 29 96 69 4 21 14 31 33 36 52 12
157 79 208 131 38 38 61 75 88 139 20 48 36 94 36 103 0 9 11 32 25 52 13 19
26 51 29 70 3 19 7 56 11 82 8 58 -5 83 -53 106 l-37 17 3 230 c2 127 8 304
13 395 6 91 13 310 16 488 5 315 6 323 27 340 35 28 56 64 56 97 0 56 -31 125
-76 172 -24 25 -44 53 -44 63 0 9 -16 49 -35 88 -42 83 -131 171 -218 215 -46
23 -57 34 -62 60 -10 44 -31 75 -68 97 -38 23 -70 25 -115 5z m114 -39 c21
-21 34 -44 34 -60 0 -25 -1 -26 -70 -24 -72 1 -78 5 -60 39 18 32 -7 22 -27
-11 -16 -27 -33 -40 -33 -23 0 3 11 26 25 49 43 74 79 82 131 30z m-126 0 c0
-7 -52 -96 -56 -96 -14 0 -1 62 18 80 20 18 38 26 38 16z m-63 -174 c-31 -30
-47 -41 -47 -31 0 9 7 22 15 29 8 7 12 17 8 23 -3 5 -1 7 4 4 6 -4 22 2 34 12
43 35 34 11 -14 -37z m83 51 c0 -5 -27 -36 -61 -70 -33 -35 -56 -63 -52 -63 5
0 38 32 73 71 l63 71 82 -4 c93 -5 132 -23 233 -107 42 -35 69 -69 95 -119 20
-38 37 -77 37 -86 0 -15 -3 -15 -29 -2 -32 17 -213 56 -258 56 -16 0 -32 3
-36 6 -8 8 -213 8 -227 -1 -6 -3 -27 -5 -48 -4 -21 2 -42 1 -47 -2 -16 -9 -65
-9 -65 -1 0 4 5 13 12 20 9 9 9 12 0 12 -7 0 -12 -3 -12 -7 0 -5 -9 -19 -20
-33 l-20 -25 4 29 c3 16 10 34 16 40 14 14 13 43 -2 49 -7 2 2 4 20 4 37 0 38
-3 15 -30 -13 -15 -14 -19 -4 -15 8 2 18 11 21 19 4 8 15 28 24 46 20 40 20
49 -1 32 -14 -12 -16 -12 -11 1 6 18 48 23 48 6 0 -7 -5 -17 -12 -24 -7 -7 -9
-12 -5 -12 4 0 39 34 78 75 66 69 89 87 89 68z m-120 -22 c0 -5 -7 -11 -15
-15 -15 -5 -20 5 -8 17 9 10 23 9 23 -2z m-55 -50 c-3 -6 -15 -16 -26 -22 -18
-9 -19 -9 -10 9 10 19 32 33 40 26 1 -1 0 -7 -4 -13z m-85 -40 c0 -12 -20 -25
-27 -18 -7 7 6 27 18 27 5 0 9 -4 9 -9z m20 -21 c0 -5 -5 -10 -11 -10 -5 0 -7
5 -4 10 3 6 8 10 11 10 2 0 4 -4 4 -10z m40 -10 c0 -5 -7 -10 -16 -10 -8 0
-12 5 -9 10 3 6 10 10 16 10 5 0 9 -4 9 -10z m-85 -19 c-3 -6 -11 -8 -17 -5
-6 4 -5 9 3 15 16 10 23 4 14 -10z m-40 -11 c-3 -5 -11 -10 -16 -10 -6 0 -7 5
-4 10 3 6 11 10 16 10 6 0 7 -4 4 -10z m25 -14 c0 -3 -4 -8 -10 -11 -5 -3 -10
-1 -10 4 0 6 5 11 10 11 6 0 10 -2 10 -4z m29 -22 c-6 -7 -15 -11 -21 -8 -5 3
-4 12 3 20 6 7 15 11 21 8 5 -3 4 -12 -3 -20z m-69 2 c0 -3 -4 -8 -10 -11 -5
-3 -10 -1 -10 4 0 6 5 11 10 11 6 0 10 -2 10 -4z m-16 -41 c-4 -10 0 -15 11
-15 22 0 14 -24 -11 -29 -10 -2 -24 -11 -30 -20 -7 -9 -16 -13 -20 -9 -9 10
15 38 32 38 8 0 14 5 14 10 0 6 -4 10 -10 10 -5 0 -10 7 -10 15 0 8 7 15 15
15 9 0 12 -6 9 -15z m57 -18 c-16 -16 -26 0 -10 19 9 11 15 12 17 4 2 -6 -1
-17 -7 -23z m198 -24 c1 25 31 21 32 -5 l2 -23 4 23 c5 26 22 30 24 5 1 -16 2
-16 6 1 5 17 14 18 156 13 168 -5 271 -30 354 -84 75 -48 118 -164 82 -221
-18 -29 -27 -28 -40 6 -36 95 -191 159 -376 154 -24 -1 -43 3 -43 8 0 10 13
13 42 11 9 -1 19 2 22 7 3 5 -16 10 -42 11 -62 4 -59 4 -119 -3 -46 -5 -53 -3
-54 12 0 12 -3 10 -11 -8 l-11 -25 -7 25 c-8 25 -8 25 -9 -4 -1 -27 1 -28 34
-24 25 3 35 0 35 -10 0 -10 -11 -13 -40 -10 -22 2 -41 0 -43 -5 -1 -5 -18 -10
-37 -13 -19 -2 -44 -5 -55 -6 -14 -2 -19 2 -17 15 2 9 -2 17 -8 17 -5 0 -10
-9 -10 -20 0 -11 -5 -20 -11 -20 -7 0 -9 23 -5 68 4 48 2 62 -5 49 -6 -9 -14
-15 -19 -12 -4 3 -10 -2 -14 -10 -7 -20 -26 -19 -26 1 0 8 -4 12 -10 9 -5 -3
-10 3 -10 14 0 20 11 25 48 24 6 -1 12 4 12 9 0 6 7 8 15 4 8 -3 15 -1 15 5 0
6 8 9 18 8 9 -1 19 0 22 1 24 8 60 7 60 -3 0 -7 6 -3 12 8 11 19 11 19 19 0 7
-17 8 -18 8 -2z m-274 -80 c-4 -10 -7 -28 -6 -40 0 -13 -3 -23 -8 -23 -9 0
-13 59 -5 72 10 16 26 8 19 -9z m55 -18 c0 -8 -4 -15 -10 -15 -5 0 -7 7 -4 15
4 8 8 15 10 15 2 0 4 -7 4 -15z m56 -12 c-10 -10 -19 5 -10 18 6 11 8 11 12 0
2 -7 1 -15 -2 -18z m-146 8 c0 -12 -20 -25 -27 -18 -7 7 6 27 18 27 5 0 9 -4
9 -9z m111 -34 c-8 -8 -11 -7 -11 4 0 20 13 34 18 19 3 -7 -1 -17 -7 -23z
m349 13 c0 -5 -5 -10 -11 -10 -5 0 -7 5 -4 10 3 6 8 10 11 10 2 0 4 -4 4 -10z
m40 6 c0 -3 -4 -8 -10 -11 -5 -3 -10 -1 -10 4 0 6 5 11 10 11 6 0 10 -2 10 -4z
m-510 -26 c0 -5 -5 -10 -11 -10 -5 0 -7 5 -4 10 3 6 8 10 11 10 2 0 4 -4 4
-10z m94 -14 c-3 -9 -10 -13 -16 -10 -5 3 -4 12 3 20 15 18 22 13 13 -10z m64
0 c0 -18 -7 -26 -25 -31 -31 -7 -33 -6 -22 20 4 11 8 14 8 8 1 -21 21 -14 21
7 0 11 4 20 9 20 5 0 9 -11 9 -24z m-208 5 c0 -12 -20 -25 -27 -18 -7 7 6 27
18 27 5 0 9 -4 9 -9z m505 -10 c3 -6 -15 -13 -41 -17 -30 -4 -41 -9 -33 -15
10 -6 6 -11 -14 -18 -16 -6 -31 -11 -35 -11 -4 0 -18 -12 -31 -25 -26 -28
-119 -59 -144 -49 -13 4 -17 1 -17 -15 0 -13 -6 -21 -16 -21 -13 0 -14 3 -5
13 6 8 9 16 6 19 -3 2 0 19 5 37 7 27 7 32 -5 27 -8 -3 -15 -1 -15 5 0 14 50
32 90 31 19 0 44 5 55 11 11 6 54 17 95 23 98 16 98 16 105 5z m-455 -11 c0
-5 -4 -10 -10 -10 -5 0 -10 5 -10 10 0 6 5 10 10 10 6 0 10 -4 10 -10z m40 1
c0 -5 -7 -14 -15 -21 -12 -10 -15 -10 -15 2 0 8 3 18 7 21 9 10 23 9 23 -2z
m562 -6 c4 -5 8 -14 8 -20 0 -5 -4 -4 -9 3 -6 10 -10 4 -16 -20 -6 -26 -9 -29
-13 -13 l-5 20 -8 -20 c-6 -16 -8 -13 -9 15 -2 39 -5 33 -15 -23 -3 -21 -10
-35 -14 -33 -4 3 -3 27 2 54 10 47 12 49 41 49 17 -1 34 -6 38 -12z m49 -22
c-10 -17 -10 -16 -11 3 0 23 13 41 18 25 2 -6 -1 -18 -7 -28z m29 12 c0 -8 -4
-15 -10 -15 -5 0 -7 7 -4 15 4 8 8 15 10 15 2 0 4 -7 4 -15z m50 5 c0 -5 -9
-10 -20 -10 -11 0 -20 5 -20 10 0 6 9 10 20 10 11 0 20 -4 20 -10z m-790 -15
c-7 -8 -17 -15 -22 -15 -6 0 -5 7 2 15 7 8 17 15 22 15 6 0 5 -7 -2 -15z m60
-9 c0 -7 -7 -19 -15 -26 -16 -13 -20 -3 -9 24 8 20 24 21 24 2z m805 4 c46
-17 105 -72 105 -96 0 -19 -8 -25 -42 -34 -51 -13 -93 -29 -173 -65 -170 -77
-218 -106 -343 -212 -35 -29 -70 -53 -78 -53 -8 0 -13 -4 -12 -10 2 -5 -23
-34 -54 -64 -32 -29 -58 -58 -58 -63 0 -6 -9 -18 -19 -27 -24 -22 -37 -4 -14
19 16 16 15 17 -3 13 -13 -2 -19 -12 -19 -30 0 -15 -5 -32 -12 -39 -10 -10
-12 4 -10 62 2 47 7 73 14 72 6 -1 13 4 16 11 4 10 0 12 -14 9 -10 -3 -19 -1
-19 5 0 15 78 112 90 112 6 0 10 6 10 14 0 16 179 186 196 186 6 0 26 14 45
31 19 17 54 40 79 52 25 11 47 24 50 28 7 10 154 68 199 78 20 5 37 9 38 10 1
1 13 -3 28 -9z m-292 -20 c-3 -11 -7 -20 -9 -20 -2 0 -4 9 -4 20 0 11 4 20 9
20 5 0 7 -9 4 -20z m-93 0 c0 -5 -4 -10 -10 -10 -5 0 -10 5 -10 10 0 6 5 10
10 10 6 0 10 -4 10 -10z m30 6 c0 -3 -4 -8 -10 -11 -5 -3 -10 -1 -10 4 0 6 5
11 10 11 6 0 10 -2 10 -4z m-425 -25 c-3 -6 -11 -11 -17 -11 -6 0 -6 6 2 15
14 17 26 13 15 -4z m365 9 c0 -5 -4 -10 -10 -10 -5 0 -10 5 -10 10 0 6 5 10
10 10 6 0 10 -4 10 -10z m-430 -21 c0 -11 -4 -18 -9 -15 -5 4 -11 0 -14 -6 -2
-7 -8 -10 -12 -6 -5 5 0 17 10 28 23 25 25 25 25 -1z m522 -1 c-7 -7 -12 -8
-12 -2 0 14 12 26 19 19 2 -3 -1 -11 -7 -17z m-42 -4 c0 -8 -5 -12 -10 -9 -6
4 -8 11 -5 16 9 14 15 11 15 -7z m-320 -4 c0 -5 -4 -10 -10 -10 -5 0 -10 5
-10 10 0 6 5 10 10 10 6 0 10 -4 10 -10z m265 1 c3 -5 1 -12 -5 -16 -5 -3 -10
1 -10 9 0 18 6 21 15 7z m-395 -18 c0 -21 -20 -55 -20 -36 0 7 -7 10 -15 7 -8
-4 -15 -1 -15 5 0 6 7 11 15 11 8 0 15 7 15 15 0 8 5 15 10 15 6 0 10 -8 10
-17z m100 7 c0 -5 -5 -10 -11 -10 -5 0 -7 5 -4 10 3 6 8 10 11 10 2 0 4 -4 4
-10z m270 -5 c0 -8 -4 -15 -10 -15 -5 0 -10 7 -10 15 0 8 5 15 10 15 6 0 10
-7 10 -15z m-304 -22 c-10 -10 -19 5 -10 18 6 11 8 11 12 0 2 -7 1 -15 -2 -18z
m241 5 c-3 -8 -6 -5 -6 6 -1 11 2 17 5 13 3 -3 4 -12 1 -19z m33 12 c0 -5 -4
-10 -10 -10 -5 0 -10 5 -10 10 0 6 5 10 10 10 6 0 10 -4 10 -10z m-54 -27
c-10 -10 -19 5 -10 18 6 11 8 11 12 0 2 -7 1 -15 -2 -18z m-166 5 c0 -6 -3 -8
-7 -5 -3 4 -12 2 -20 -4 -8 -8 -13 -8 -13 -1 0 10 15 19 33 21 4 1 7 -4 7 -11z
m270 -6 c0 -11 -7 -18 -20 -18 -11 0 -20 6 -20 13 0 7 7 10 15 7 8 -4 15 -1
15 5 0 6 2 11 5 11 3 0 5 -8 5 -18z m47 -4 c-3 -8 -6 -5 -6 6 -1 11 2 17 5 13
3 -3 4 -12 1 -19z m-217 6 c0 -11 -34 -33 -50 -33 -10 0 -8 6 9 19 23 20 41
26 41 14z m-152 -15 c-2 -6 -8 -11 -13 -11 -6 0 -16 -4 -22 -10 -10 -8 -13 -6
-13 6 0 10 4 15 9 11 5 -3 12 -1 16 5 8 13 28 13 23 -1z m272 1 c0 -5 -5 -10
-11 -10 -5 0 -7 5 -4 10 3 6 8 10 11 10 2 0 4 -4 4 -10z m-51 -24 c-2 -2 -14
-7 -26 -10 -18 -6 -23 -3 -23 9 0 11 5 15 15 12 8 -4 18 -1 22 5 5 9 8 9 11
-1 2 -7 2 -14 1 -15z m-195 -12 c9 -24 7 -27 -9 -10 -17 17 -19 26 -6 26 5 0
12 -7 15 -16z m56 8 c0 -5 -3 -12 -7 -16 -5 -4 -8 -13 -8 -18 0 -6 -6 -13 -13
-16 -7 -2 -10 2 -7 12 3 9 7 23 10 31 5 16 25 21 25 7z m778 -57 c1 -38 -2
-61 -10 -66 -22 -14 -27 1 -12 36 7 19 10 36 5 39 -5 3 -18 -17 -30 -45 -14
-36 -25 -50 -35 -46 -8 3 -17 1 -20 -6 -3 -7 -4 6 -1 28 l4 40 -12 -32 c-20
-52 -28 -50 -12 3 8 27 15 59 15 72 0 12 5 22 10 22 6 0 10 -5 10 -12 0 -6 7
-3 15 8 12 16 14 16 15 3 0 -9 -7 -36 -15 -59 -23 -65 -10 -60 15 6 26 71 29
76 43 71 7 -2 13 -29 15 -62z m-868 45 c0 -5 -4 -10 -10 -10 -5 0 -10 5 -10
10 0 6 5 10 10 10 6 0 10 -4 10 -10z m-30 -14 c0 -3 -4 -8 -10 -11 -5 -3 -10
-1 -10 4 0 6 5 11 10 11 6 0 10 -2 10 -4z m230 -12 c0 -8 -5 -12 -10 -9 -6 4
-8 11 -5 16 9 14 15 11 15 -7z m532 -73 c-20 -70 -45 -97 -37 -39 4 27 3 29
-4 8 -7 -23 -8 -23 -13 -5 -3 11 -4 7 -2 -9 6 -43 -29 -77 -39 -38 -4 13 -5
11 -6 -5 0 -13 -6 -23 -12 -23 -7 0 -9 12 -5 33 3 17 8 50 12 72 4 29 12 44
29 51 21 10 24 9 28 -10 3 -17 5 -15 6 7 1 28 15 37 24 15 4 -8 6 -7 6 4 1 19
25 31 29 14 1 -6 -6 -40 -16 -75z m-732 59 c0 -5 -7 -10 -15 -10 -8 0 -15 5
-15 10 0 6 7 10 15 10 8 0 15 -4 15 -10z m100 -10 c0 -5 -2 -10 -4 -10 -3 0
-8 5 -11 10 -3 6 -1 10 4 10 6 0 11 -4 11 -10z m124 -28 c-34 -33 -64 -38 -64
-10 0 11 5 16 10 13 6 -3 10 1 10 9 0 9 5 16 10 16 6 0 10 -6 10 -12 0 -9 3
-10 8 -2 7 12 34 23 41 18 2 -2 -10 -16 -25 -32z m-234 8 c0 -5 -5 -10 -11
-10 -5 0 -7 5 -4 10 3 6 8 10 11 10 2 0 4 -4 4 -10z m619 -75 c-14 -87 -26
-87 -15 0 6 41 13 72 17 68 4 -5 3 -35 -2 -68z m-529 52 c0 -7 -9 -18 -20 -25
-18 -11 -20 -10 -20 9 0 11 4 18 9 14 5 -3 12 -1 16 5 8 14 15 13 15 -3z m30
3 c0 -5 -4 -10 -10 -10 -5 0 -10 5 -10 10 0 6 5 10 10 10 6 0 10 -4 10 -10z
m-120 -9 c0 -6 -4 -13 -10 -16 -5 -3 -10 1 -10 9 0 9 5 16 10 16 6 0 10 -4 10
-9z m589 -12 c1 8 4 12 7 8 12 -12 -18 -137 -32 -137 -8 0 -15 -6 -15 -12 -1
-7 -5 1 -9 17 l-8 30 -1 -32 c0 -17 -6 -35 -11 -38 -7 -4 -9 14 -6 52 l5 58
-12 -64 c-13 -68 -36 -97 -31 -39 3 25 1 23 -8 -12 l-12 -45 -7 40 c-5 35 -6
36 -8 10 -1 -16 -4 -41 -8 -55 -7 -24 -8 -23 -14 10 l-6 35 -2 -37 c-1 -45
-18 -59 -24 -21 -3 23 -4 21 -6 -9 -1 -43 -21 -52 -21 -10 0 15 -4 33 -9 40
-10 17 -21 -17 -21 -70 0 -56 -20 -57 -22 -1 l-1 48 -7 -55 c-7 -53 -7 -53 -8
25 -1 74 1 82 24 100 13 11 39 33 57 48 18 16 44 36 60 45 15 9 27 20 27 24 0
4 5 8 10 8 6 0 11 -19 12 -42 l1 -43 6 48 c3 26 10 46 14 45 5 -2 13 5 19 15
7 13 13 15 23 7 9 -8 14 -5 19 12 7 22 7 22 16 3 5 -12 9 -14 9 -6z m-452 -11
c-3 -8 -6 -5 -6 6 -1 11 2 17 5 13 3 -3 4 -12 1 -19z m-17 -3 c0 -8 -4 -15
-10 -15 -5 0 -10 7 -10 15 0 8 5 15 10 15 6 0 10 -7 10 -15z m758 -82 l3 -71
-53 -18 c-71 -23 -221 -101 -283 -146 -27 -21 -61 -43 -75 -50 -41 -21 -181
-147 -239 -215 -29 -35 -57 -63 -62 -63 -5 0 -9 -6 -9 -14 0 -8 -13 -25 -28
-38 -16 -13 -27 -29 -24 -37 2 -7 -5 -15 -17 -18 -12 -3 -21 -13 -21 -24 0
-10 -4 -20 -8 -23 -5 -3 -9 17 -9 44 -1 28 3 50 8 50 5 0 9 -9 9 -21 0 -11 4
-18 9 -15 15 10 1 44 -20 49 -24 6 -16 34 12 42 16 5 18 10 9 20 -9 11 0 21
44 51 62 41 77 59 20 24 -50 -32 -52 -19 -2 26 24 21 43 45 43 52 0 17 134
152 151 152 6 0 14 6 17 14 3 8 52 49 109 91 122 92 368 220 403 211 6 -1 11
-34 13 -73z m-808 59 c0 -10 -70 -45 -77 -39 -4 5 58 47 70 47 4 0 7 -4 7 -8z
m50 -26 c0 -7 -9 -16 -20 -19 -13 -3 -20 0 -20 10 0 8 5 11 10 8 6 -3 10 -1
10 4 0 6 5 11 10 11 6 0 10 -6 10 -14z m-53 -28 c-3 -8 -6 -5 -6 6 -1 11 2 17
5 13 3 -3 4 -12 1 -19z m-17 -2 c0 -8 -7 -16 -15 -20 -9 -3 -15 0 -15 10 0 8
5 12 10 9 6 -3 10 -1 10 4 0 6 2 11 5 11 3 0 5 -6 5 -14z m-40 -21 c0 -8 -4
-15 -10 -15 -5 0 -10 7 -10 15 0 8 5 15 10 15 6 0 10 -7 10 -15z m-33 -17 c-3
-8 -6 -5 -6 6 -1 11 2 17 5 13 3 -3 4 -12 1 -19z m89 -6 c-7 -12 -46 -23 -46
-13 0 9 43 31 49 25 1 -1 0 -7 -3 -12z m-56 -21 c0 -6 -4 -13 -10 -16 -5 -3
-10 1 -10 9 0 9 5 16 10 16 6 0 10 -4 10 -9z m869 -90 c0 -25 -4 -66 -7 -91
-7 -42 -9 -45 -51 -57 -25 -7 -46 -11 -48 -9 -7 7 10 36 18 30 10 -6 69 112
68 136 0 8 -9 -4 -19 -27 -25 -57 -32 -54 -14 5 9 26 17 53 19 59 3 7 11 10
20 7 11 -4 15 -20 14 -53z m-599 -26 c0 -62 -4 -79 -20 -95 l-20 -20 0 24 c0
13 6 27 13 30 10 5 10 7 0 12 -8 3 -13 24 -13 50 0 28 4 43 10 39 6 -3 10 3
10 14 0 12 5 21 10 21 6 0 10 -32 10 -75z m544 43 c-18 -60 -46 -128 -55 -133
-5 -3 -7 0 -5 7 37 116 49 148 57 148 6 0 7 -10 3 -22z m-54 -10 c0 -9 4 -8
10 2 15 23 12 -1 -6 -53 -9 -26 -19 -45 -23 -42 -5 2 -14 -15 -21 -38 -7 -23
-18 -53 -26 -67 -28 -52 -7 47 41 198 3 6 9 12 15 12 5 0 10 -6 10 -12z m-540
-28 c0 -11 -4 -20 -10 -20 -5 0 -10 9 -10 20 0 11 5 20 10 20 6 0 10 -9 10
-20z m494 -15 c-4 -16 -10 -22 -14 -16 -3 7 -19 -32 -35 -84 -24 -82 -32 -98
-57 -111 -33 -17 -33 -16 -12 77 9 39 14 72 11 75 -2 3 -12 -34 -22 -81 -10
-47 -23 -89 -28 -92 -6 -4 -8 4 -4 18 3 13 11 51 17 84 18 86 29 113 41 94 7
-12 9 -11 9 3 0 22 36 43 43 25 3 -7 6 -5 6 6 1 10 11 21 24 26 28 11 29 9 21
-24z m-528 -22 c-11 -11 -19 6 -11 24 8 17 8 17 12 0 3 -10 2 -21 -1 -24z
m-198 -43 c0 -38 -4 -73 -10 -76 -16 -10 -23 6 -11 25 8 13 8 22 1 29 -7 7 -6
16 1 30 6 10 8 22 4 25 -6 6 3 37 10 37 3 0 5 -31 5 -70z m164 28 c-7 -7 -12
-8 -12 -2 0 14 12 26 19 19 2 -3 -1 -11 -7 -17z m64 -15 c-11 -11 -19 6 -11
24 8 17 8 17 12 0 3 -10 2 -21 -1 -24z m-26 -4 c0 -11 -4 -17 -10 -14 -5 3
-10 13 -10 21 0 8 5 14 10 14 6 0 10 -9 10 -21z m-30 -16 c0 -9 -3 -14 -6 -10
-4 3 -13 0 -21 -8 -15 -16 -33 -20 -33 -7 0 5 41 35 58 41 1 1 2 -6 2 -16z
m399 -47 c-7 -31 -15 -54 -18 -51 -2 3 -10 -7 -17 -22 -10 -26 -11 -24 -8 22
3 44 2 46 -5 15 l-8 -35 -3 40 c-2 33 -4 26 -15 -39 -8 -43 -17 -91 -21 -105
l-7 -26 -7 25 -8 25 -1 -27 c-1 -15 -6 -30 -13 -34 -8 -5 -9 5 -4 37 4 24 9
62 10 84 3 35 3 36 -4 10 l-7 -30 -2 36 c-1 28 5 41 29 62 16 15 34 27 40 27
5 0 10 5 10 10 0 6 7 10 15 10 8 0 15 5 15 10 0 17 18 11 23 -7 3 -13 5 -11 6
6 0 13 4 22 7 18 3 -3 0 -31 -7 -61z m-343 27 c-10 -10 -19 5 -10 18 6 11 8
11 12 0 2 -7 1 -15 -2 -18z m-26 -8 c0 -8 -2 -15 -4 -15 -2 0 -11 -3 -20 -6
-9 -3 -16 -1 -16 6 0 6 5 8 10 5 6 -3 10 1 10 9 0 9 5 16 10 16 6 0 10 -7 10
-15z m-109 -28 c-8 -8 -11 -7 -11 4 0 20 13 34 18 19 3 -7 -1 -17 -7 -23z m56
-9 c-3 -8 -6 -5 -6 6 -1 11 2 17 5 13 3 -3 4 -12 1 -19z m83 18 c0 -3 -4 -8
-10 -11 -5 -3 -10 -1 -10 4 0 6 5 11 10 11 6 0 10 -2 10 -4z m640 -45 c0 -88
-6 -98 -91 -143 -161 -86 -368 -269 -486 -430 -32 -43 -61 -78 -65 -78 -4 0
-8 -9 -8 -20 0 -11 -7 -23 -15 -26 -8 -4 -15 -14 -15 -23 -1 -23 -27 -54 -39
-46 -6 3 -11 -1 -11 -11 0 -10 -3 -14 -7 -11 -3 4 -13 1 -21 -6 -12 -9 -16 -9
-19 0 -3 9 -11 6 -26 -7 -26 -25 -37 -25 -37 0 0 30 3 35 25 35 11 -1 26 6 32
15 11 13 14 13 23 0 8 -13 10 -13 10 1 0 8 12 20 28 26 26 11 26 11 -8 6 -19
-3 -40 -10 -47 -15 -7 -5 -13 -4 -15 3 -3 8 -9 7 -20 -5 -19 -18 -38 -21 -38
-6 0 10 28 25 105 54 l40 15 -32 -2 c-18 -1 -33 -5 -33 -9 0 -5 -7 -8 -15 -8
-23 0 -18 27 8 35 19 6 19 8 5 12 -21 5 -21 8 -8 33 5 10 21 21 36 24 19 5 23
10 15 20 -13 16 13 56 37 56 14 0 14 2 3 9 -29 18 136 204 294 330 55 44 111
86 125 93 14 7 56 30 94 52 74 41 130 64 159 65 13 1 17 -7 17 -38z m-740 20
c0 -9 -30 -25 -42 -23 -5 1 -8 -2 -8 -8 0 -5 -4 -10 -10 -10 -18 0 -10 15 18
32 31 20 42 22 42 9z m70 -7 c0 -8 -4 -12 -10 -9 -5 3 -10 10 -10 16 0 5 5 9
10 9 6 0 10 -7 10 -16z m-25 -3 c3 -5 1 -12 -5 -16 -5 -3 -10 1 -10 9 0 18 6
21 15 7z m-175 -14 c0 -14 -20 -37 -32 -37 -10 0 -11 34 -1 43 11 12 33 8 33
-6z m147 -9 c-3 -8 -6 -5 -6 6 -1 11 2 17 5 13 3 -3 4 -12 1 -19z m533 12 c0
-5 -5 -10 -11 -10 -5 0 -7 5 -4 10 3 6 8 10 11 10 2 0 4 -4 4 -10z m-260 -34
c0 -19 3 -42 7 -52 4 -11 3 -15 -5 -11 -7 5 -13 -13 -18 -50 l-8 -58 -7 40 -6
40 -2 -47 c-1 -57 -20 -75 -23 -21 l-1 38 -7 -45 c-6 -41 -7 -37 -10 35 l-3
80 -6 -92 c-8 -115 -31 -152 -31 -50 0 38 -4 67 -10 67 -5 0 -10 -8 -10 -17 0
-10 -3 -36 -5 -58 -4 -30 -3 -35 4 -20 l10 20 0 -20 c0 -11 -2 -31 -6 -43 -4
-18 -8 -20 -14 -10 -6 9 -9 4 -11 -17 -1 -16 -4 4 -8 45 l-6 75 -2 -72 c-2
-72 -17 -99 -25 -45 -4 24 -4 24 -6 -7 -1 -24 -5 -32 -15 -28 -8 3 -17 1 -19
-6 -8 -22 -15 -3 -19 48 -2 36 0 49 10 48 6 -2 12 6 12 17 0 12 16 36 35 56
19 19 35 38 35 41 0 9 98 103 107 103 5 0 17 11 28 25 27 33 35 31 35 -9z
m-310 -1 c0 -8 -4 -15 -10 -15 -5 0 -10 7 -10 15 0 8 5 15 10 15 6 0 10 -7 10
-15z m397 -27 c-3 -7 -5 -2 -5 12 0 14 2 19 5 13 2 -7 2 -19 0 -25z m-427 5
c0 -9 -3 -13 -7 -10 -3 4 -12 2 -20 -4 -7 -6 -13 -8 -13 -4 0 7 29 34 38 35 1
0 2 -7 2 -17z m466 -31 c-11 -10 -15 4 -8 28 l7 25 3 -23 c2 -13 1 -26 -2 -30z
m-566 28 c0 -5 -4 -10 -10 -10 -5 0 -10 5 -10 10 0 6 5 10 10 10 6 0 10 -4 10
-10z m130 -22 c0 -16 -3 -19 -11 -11 -6 6 -8 16 -5 22 11 17 16 13 16 -11z
m-28 -30 c-9 -9 -12 -7 -12 12 0 19 3 21 12 12 9 -9 9 -15 0 -24z m-95 0 c-3
-8 -6 -5 -6 6 -1 11 2 17 5 13 3 -3 4 -12 1 -19z m70 -10 c-3 -8 -6 -5 -6 6
-1 11 2 17 5 13 3 -3 4 -12 1 -19z m-57 -33 c0 -8 -4 -15 -10 -15 -5 0 -10 7
-10 15 0 8 5 15 10 15 6 0 10 -7 10 -15z m813 -40 c-16 -49 -34 -69 -27 -33 2
13 -7 -11 -21 -51 -13 -41 -23 -76 -22 -77 8 -9 58 71 82 131 15 39 29 72 31
74 2 3 2 -31 0 -74 -3 -52 -10 -83 -20 -93 -21 -22 -29 -10 -16 23 6 15 9 30
6 32 -2 2 -10 -13 -16 -34 -15 -46 -37 -73 -60 -73 -10 0 -21 -8 -25 -17 -7
-17 -8 -16 -15 2 -7 18 -8 18 -15 -7 -4 -16 -12 -28 -17 -28 -6 0 -7 8 -3 18
12 33 55 184 55 197 0 7 7 18 15 25 12 10 15 9 16 -6 0 -14 2 -15 6 -4 7 19
45 50 55 44 3 -2 0 -25 -9 -49z m-813 -10 c0 -8 -4 -15 -10 -15 -5 0 -10 7
-10 15 0 8 5 15 10 15 6 0 10 -7 10 -15z m690 -115 c-18 -61 -36 -112 -40
-115 -8 -5 43 206 55 225 20 32 14 -10 -15 -110z m-690 80 c0 -5 -5 -10 -11
-10 -5 0 -7 5 -4 10 3 6 8 10 11 10 2 0 4 -4 4 -10z m650 -76 c-7 -19 -15 -33
-18 -29 -4 3 -19 -31 -34 -77 -16 -48 -25 -67 -22 -45 8 56 -3 44 -16 -18 -6
-30 -15 -55 -19 -55 -5 0 0 35 10 78 20 83 23 109 9 77 -8 -18 -9 -18 -10 5
-1 14 -11 -22 -21 -79 -11 -57 -24 -111 -30 -120 -8 -13 -9 -11 -5 9 3 14 8
50 11 80 3 40 0 29 -14 -38 -10 -51 -21 -95 -25 -99 -13 -14 -15 6 -5 71 6 37
8 70 5 73 -3 4 -6 -3 -6 -15 0 -12 -4 -22 -9 -22 -5 0 -14 -38 -21 -85 -7 -47
-16 -87 -20 -90 -5 -3 -13 14 -18 37 l-10 43 -2 -45 c-1 -25 -6 -58 -11 -75
-4 -17 -5 25 -2 100 5 115 8 132 26 150 12 11 25 19 29 18 5 -2 8 3 8 10 0 6
18 29 39 49 l40 37 4 -32 c3 -29 4 -28 5 8 2 38 21 68 46 72 5 1 14 9 19 18 8
14 11 15 18 4 7 -11 9 -9 9 7 0 12 10 28 23 37 20 13 22 13 25 -4 2 -11 -2
-35 -8 -55z m-643 2 c-3 -8 -1 -17 6 -19 9 -3 9 -7 0 -17 -8 -9 -9 -20 -2 -38
11 -28 6 -52 -10 -52 -6 0 -10 15 -10 33 0 17 -1 39 -2 47 -4 32 1 60 12 60 6
0 9 -6 6 -14z m143 -10 c0 -3 -4 -8 -10 -11 -5 -3 -10 -1 -10 4 0 6 5 11 10
11 6 0 10 -2 10 -4z m0 -36 c0 -12 -35 -31 -44 -23 -3 3 -6 1 -6 -5 0 -7 -4
-12 -10 -12 -21 0 -9 27 18 37 36 14 42 15 42 3z m700 -27 c0 -95 -6 -104
-101 -173 -105 -75 -193 -175 -282 -321 l-63 -102 -64 -18 c-80 -23 -91 -23
-84 -4 4 8 37 25 76 36 38 12 67 23 65 26 -3 2 -29 -3 -58 -11 -29 -9 -56 -16
-61 -16 -13 0 57 124 134 237 45 67 103 135 166 193 92 87 232 190 259 190 8
0 13 -13 13 -37z m-642 6 c-2 -6 -8 -11 -13 -11 -6 0 -16 -4 -22 -10 -10 -8
-13 -6 -13 6 0 10 4 15 9 11 5 -3 12 -1 16 5 8 13 28 13 23 -1z m-232 -56
c-10 -10 -19 5 -10 18 6 11 8 11 12 0 2 -7 1 -15 -2 -18z m95 -6 c-13 -13 -26
-3 -16 12 3 6 11 8 17 5 6 -4 6 -10 -1 -17z m102 -3 c-4 -10 -9 -12 -15 -6
-12 12 -1 35 12 27 5 -3 6 -13 3 -21z m-163 -13 c0 -6 -4 -13 -10 -16 -5 -3
-10 1 -10 9 0 9 5 16 10 16 6 0 10 -4 10 -9z m76 -33 c-20 -11 -21 -29 -1 -22
8 4 15 1 15 -5 0 -6 -4 -11 -9 -11 -5 0 -16 -2 -23 -5 -10 -4 -14 5 -15 35 -1
22 2 40 8 40 5 0 9 -6 9 -12 0 -7 6 -4 12 7 12 19 12 19 16 1 2 -10 -3 -23
-12 -28z m39 33 c3 -5 1 -12 -5 -16 -5 -3 -10 1 -10 9 0 18 6 21 15 7z m-88
-43 c-3 -8 -6 -5 -6 6 -1 11 2 17 5 13 3 -3 4 -12 1 -19z m-60 -20 c-3 -7 -5
-2 -5 12 0 14 2 19 5 13 2 -7 2 -19 0 -25z m383 -40 c-1 -18 -5 -80 -9 -137
-7 -79 -13 -106 -25 -113 -9 -5 -17 -19 -18 -31 -1 -12 -5 14 -8 58 l-6 80 -2
-97 c-2 -99 -18 -142 -25 -66 -3 41 -4 41 -5 -9 -1 -29 -6 -53 -12 -53 -6 0
-10 39 -10 97 0 53 -3 93 -7 89 -4 -4 -6 -22 -5 -41 3 -47 -15 -45 -21 3 -3
24 0 41 9 48 8 6 14 15 14 20 0 15 87 144 92 138 3 -3 8 7 12 21 9 36 26 31
26 -7z m464 -155 c-10 -7 -19 -11 -21 -9 -2 2 4 48 14 102 l18 99 3 -90 c2
-75 0 -92 -14 -102z m-804 167 c0 -5 -4 -10 -10 -10 -5 0 -10 5 -10 10 0 6 5
10 10 10 6 0 10 -4 10 -10z m800 -1 c0 -24 -42 -189 -49 -193 -4 -3 -4 18 0
47 4 29 7 68 7 87 0 19 -5 1 -11 -40 -9 -65 -12 -71 -18 -45 -8 27 -8 26 -4
-7 2 -21 0 -38 -6 -38 -5 0 -9 -13 -9 -29 0 -32 -19 -54 -21 -24 -1 13 -3 11
-9 -7 -7 -21 -8 -18 -10 20 -2 43 -3 42 -11 -19 -9 -74 -28 -105 -30 -51 -1
29 -3 26 -12 -20 l-11 -55 -7 40 c-6 40 -6 40 -8 -13 -1 -39 -6 -57 -21 -69
-11 -10 -20 -25 -20 -35 0 -26 -20 -32 -22 -6 0 13 -4 1 -8 -27 -6 -40 -8 -46
-15 -28 -4 13 -11 20 -16 17 -5 -3 -10 25 -10 63 -1 37 -4 58 -6 46 -3 -14
-11 -21 -24 -20 -19 1 -28 17 -9 17 6 0 10 11 10 24 0 13 3 26 8 28 11 5 52
66 52 78 0 5 4 10 8 10 5 0 14 12 20 26 7 14 16 23 21 20 5 -3 12 5 15 19 3
13 20 32 36 42 17 9 30 21 30 27 0 14 51 57 61 51 5 -4 9 1 9 9 0 22 17 20 23
-1 3 -12 5 -8 6 9 1 34 61 80 61 47z m-750 -31 c0 -12 -3 -18 -7 -15 -3 4 -12
2 -20 -4 -10 -9 -13 -7 -13 10 0 12 4 20 9 16 5 -3 12 -1 16 5 10 16 15 12 15
-12z m-50 -18 c0 -5 -4 -10 -10 -10 -5 0 -10 5 -10 10 0 6 5 10 10 10 6 0 10
-4 10 -10z m0 -52 c0 -16 -3 -19 -11 -11 -6 6 -8 16 -5 22 11 17 16 13 16 -11z
m-30 -85 c0 -44 -5 -41 -14 10 -5 27 -4 37 3 32 6 -3 11 -22 11 -42z m849
-108 c-2 -135 -11 -154 -93 -190 -48 -21 -139 -45 -171 -45 -24 0 -18 15 47
112 52 80 194 238 212 238 3 0 6 -52 5 -115z m-639 46 c0 -11 -4 -22 -9 -25
-11 -7 -20 14 -13 32 7 19 22 14 22 -7z m-75 -42 c-4 -6 -13 -8 -20 -5 -8 3
-15 1 -17 -3 -2 -5 -13 -12 -25 -15 -19 -6 -23 -3 -23 13 0 11 5 23 10 26 6 3
10 0 10 -7 0 -9 3 -9 10 2 5 8 10 11 10 7 0 -5 7 -1 17 8 15 15 17 15 25 1 5
-9 6 -21 3 -27z m25 37 c0 -3 -4 -8 -10 -11 -5 -3 -10 -1 -10 4 0 6 5 11 10
11 6 0 10 -2 10 -4z m-143 -18 c-3 -34 16 -117 28 -122 17 -6 26 16 14 35 -7
12 -9 12 -9 0 0 -8 -2 -12 -5 -9 -3 3 -3 13 1 22 8 21 34 21 34 -1 0 -10 3
-27 6 -38 4 -16 -2 -23 -26 -32 -36 -14 -64 -7 -56 14 3 8 1 11 -4 8 -11 -7
-14 75 -4 113 7 23 23 31 21 10z m223 -22 c0 -8 -4 -18 -10 -21 -5 -3 -10 3
-10 14 0 12 5 21 10 21 6 0 10 -6 10 -14z m-30 -9 c0 -7 -13 -18 -30 -24 -23
-9 -30 -9 -30 1 0 7 10 18 23 24 30 14 37 14 37 -1z m-101 -39 c-5 -10 -12
-18 -14 -18 -3 0 -5 8 -5 18 0 10 7 19 14 19 11 0 13 -5 5 -19z m131 2 c0 -5
-4 -10 -10 -10 -5 0 -10 5 -10 10 0 6 5 10 10 10 6 0 10 -4 10 -10z m-30 -11
c0 -5 -4 -8 -9 -5 -5 4 -11 1 -13 -4 -4 -14 -58 -23 -58 -10 0 6 5 8 10 5 6
-3 10 -2 10 4 0 8 9 12 53 20 4 0 7 -4 7 -10z m719 -25 c27 -23 31 -32 31 -78
0 -71 -25 -114 -91 -154 -119 -72 -296 -100 -514 -82 -77 6 -144 15 -150 18
-5 4 -14 7 -20 7 -5 1 -27 5 -47 9 -32 7 -38 13 -39 35 -2 24 -2 24 -6 3 -3
-16 -9 -22 -20 -18 -8 3 -26 9 -39 12 -13 3 -24 10 -24 16 0 5 -4 6 -10 3 -14
-9 -91 46 -101 73 -12 32 -11 102 1 102 6 0 10 -13 10 -30 0 -22 5 -30 18 -30
10 0 27 -8 38 -17 10 -10 26 -18 34 -18 9 0 17 -13 21 -35 6 -32 6 -33 8 -6 1
23 4 26 14 17 8 -6 17 -8 21 -4 4 4 9 -3 13 -15 5 -20 7 -21 17 -6 11 14 15
14 27 3 8 -8 20 -14 27 -15 29 -2 32 -5 33 -31 2 -25 2 -25 8 6 8 47 30 59 72
39 24 -12 37 -13 49 -5 13 8 27 6 53 -6 43 -21 149 -21 262 -2 l80 14 -70 -4
c-38 -2 -108 -7 -154 -11 -56 -5 -82 -4 -78 3 4 6 55 13 114 16 116 6 196 24
270 59 57 28 83 61 90 116 3 23 9 42 14 42 4 0 21 -12 38 -26z m-969 -13 c0
-20 -27 -48 -37 -37 -8 7 17 56 29 56 4 0 8 -8 8 -19z m310 -8 c0 -5 -5 -15
-10 -23 -8 -12 -10 -11 -10 8 0 12 5 22 10 22 6 0 10 -3 10 -7z m-30 -25 c0
-16 -3 -19 -11 -11 -6 6 -8 16 -5 22 11 17 16 13 16 -11z m-270 -7 c0 -12 -20
-25 -27 -18 -7 7 6 27 18 27 5 0 9 -4 9 -9z m106 -16 c-1 -28 -10 -31 -30 -12
-12 10 -10 14 8 24 11 7 22 12 22 13 1 0 1 -11 0 -25z m114 8 c0 -14 -39 -34
-52 -26 -5 2 -8 0 -8 -5 0 -5 -9 -12 -20 -15 -11 -3 -20 -1 -20 4 0 5 5 9 10
9 6 0 10 7 10 15 0 13 18 20 43 16 4 0 7 3 7 7 0 5 7 9 15 9 8 0 15 -6 15 -14z
m310 -24 c0 -23 -4 -38 -10 -34 -5 3 -7 12 -3 21 4 11 0 14 -21 10 -14 -2 -30
-7 -36 -11 -15 -9 -12 4 4 21 8 8 21 14 30 14 8 0 18 5 21 10 11 18 15 10 15
-31z m-517 -4 c-4 -11 -1 -13 11 -9 16 6 23 -10 8 -20 -14 -8 -45 23 -38 39 3
9 10 14 15 10 6 -3 8 -12 4 -20z m417 0 c0 -9 -6 -18 -14 -21 -8 -3 -11 -15
-8 -30 4 -22 1 -24 -36 -24 -23 0 -44 5 -48 11 -3 6 -17 8 -30 5 -17 -5 -24
-2 -24 8 0 19 14 28 80 48 70 21 80 21 80 3z m-160 -5 c0 -5 -4 -10 -10 -10
-5 0 -10 5 -10 10 0 6 5 10 10 10 6 0 10 -4 10 -10z m-50 -25 c0 -9 -9 -15
-25 -15 -24 0 -32 10 -18 23 12 13 43 7 43 -8z m280 -11 c0 -14 -4 -23 -10
-19 -5 3 -10 2 -10 -4 0 -6 -7 -8 -15 -5 -8 4 -15 15 -15 25 0 12 5 16 14 13
8 -3 17 -1 21 5 10 17 15 13 15 -15z m-435 6 c3 -5 1 -10 -4 -10 -6 0 -11 5
-11 10 0 6 2 10 4 10 3 0 8 -4 11 -10z m35 -20 c0 -5 -4 -10 -10 -10 -5 0 -10
5 -10 10 0 6 5 10 10 10 6 0 10 -4 10 -10z m336 -17 c-10 -10 -19 5 -10 18 6
11 8 11 12 0 2 -7 1 -15 -2 -18z m-301 7 c3 -5 -1 -10 -10 -10 -9 0 -13 5 -10
10 3 6 8 10 10 10 2 0 7 -4 10 -10z m-84 -160 c2 -23 2 -23 6 -2 3 15 11 22
29 22 13 0 24 -4 24 -10 0 -5 7 -7 16 -3 14 5 15 -4 13 -70 -2 -42 0 -79 4
-83 4 -4 7 27 7 69 0 62 3 77 15 77 8 0 15 -4 15 -9 0 -5 9 -7 20 -4 19 5 20
0 20 -126 0 -123 -6 -150 -27 -118 -4 6 -11 39 -14 72 l-6 60 -1 -52 c-1 -29
-5 -53 -9 -53 -9 0 -82 77 -102 106 -23 35 -79 169 -74 177 10 16 63 -27 64
-53z m853 18 c-16 -55 -79 -166 -112 -201 -58 -60 -158 -115 -243 -133 -79
-17 -209 -15 -231 4 -7 5 -16 11 -20 11 -4 1 -15 4 -23 6 -8 3 -22 7 -30 10
-12 4 -15 28 -15 134 l0 130 33 -4 c17 -2 106 -7 197 -11 149 -6 173 -5 250
15 47 11 108 30 135 41 64 25 68 24 59 -2z m-359 -378 c3 -5 -6 -22 -20 -36
-22 -22 -33 -25 -63 -21 -38 7 -71 31 -58 44 6 6 30 11 123 22 6 0 15 -3 18
-9z"/>
<path d="M5450 4355 c-7 -9 -8 -15 -2 -15 5 0 12 7 16 15 3 8 4 15 2 15 -2 0
-9 -7 -16 -15z"/>
<path d="M5430 4305 c-7 -9 -8 -15 -2 -15 5 0 12 7 16 15 3 8 4 15 2 15 -2 0
-9 -7 -16 -15z"/>
<path d="M5582 4190 c0 -14 2 -19 5 -12 2 6 2 18 0 25 -3 6 -5 1 -5 -13z"/>
<path d="M5551 4184 c0 -11 3 -14 6 -6 3 7 2 16 -1 19 -3 4 -6 -2 -5 -13z"/>
<path d="M5412 4145 c0 -16 2 -22 5 -12 2 9 2 23 0 30 -3 6 -5 -1 -5 -18z"/>
<path d="M5491 4114 c0 -11 3 -14 6 -6 3 7 2 16 -1 19 -3 4 -6 -2 -5 -13z"/>
<path d="M5820 4120 c0 -5 7 -7 15 -4 8 4 15 8 15 10 0 2 -7 4 -15 4 -8 0 -15
-4 -15 -10z"/>
<path d="M5861 4126 c2 -2 22 -6 44 -9 28 -5 34 -4 20 3 -19 8 -73 14 -64 6z"/>
<path d="M6130 4043 c0 -5 7 -18 15 -29 12 -16 14 -16 15 -3 0 9 -7 22 -15 29
-8 7 -15 8 -15 3z"/>
<path d="M5410 3970 c-8 -5 -10 -10 -5 -10 6 0 17 5 25 10 8 5 11 10 5 10 -5
0 -17 -5 -25 -10z"/>
<path d="M5300 3474 c0 -8 5 -12 10 -9 6 3 10 10 10 16 0 5 -4 9 -10 9 -5 0
-10 -7 -10 -16z"/>
<path d="M6031 3824 c0 -11 3 -14 6 -6 3 7 2 16 -1 19 -3 4 -6 -2 -5 -13z"/>
<path d="M5962 3790 c0 -14 2 -19 5 -12 2 6 2 18 0 25 -3 6 -5 1 -5 -13z"/>
<path d="M5911 3775 c-1 -11 -4 -31 -6 -45 l-6 -25 11 25 c6 13 9 33 7 45 -4
19 -4 19 -6 0z"/>
<path d="M5821 3705 c-1 -11 -4 -31 -6 -45 l-6 -25 11 25 c6 13 9 33 7 45 -4
19 -4 19 -6 0z"/>
<path d="M5792 3690 c0 -14 2 -19 5 -12 2 6 2 18 0 25 -3 6 -5 1 -5 -13z"/>
<path d="M5701 3664 c0 -11 3 -14 6 -6 3 7 2 16 -1 19 -3 4 -6 -2 -5 -13z"/>
<path d="M6095 3439 c-4 -6 -5 -12 -2 -15 2 -3 7 2 10 11 7 17 1 20 -8 4z"/>
<path d="M6006 3474 c-4 -14 -5 -28 -3 -31 3 -2 8 8 11 23 4 14 5 28 3 31 -3
2 -8 -8 -11 -23z"/>
<path d="M5891 3379 c-12 -39 -21 -72 -19 -75 2 -2 14 28 27 67 12 39 21 72
19 75 -2 2 -14 -28 -27 -67z"/>
<path d="M5722 3300 c0 -19 2 -27 5 -17 2 9 2 25 0 35 -3 9 -5 1 -5 -18z"/>
<path d="M5712 3240 c0 -14 2 -19 5 -12 2 6 2 18 0 25 -3 6 -5 1 -5 -13z"/>
<path d="M5428 2643 c7 -3 16 -2 19 1 4 3 -2 6 -13 5 -11 0 -14 -3 -6 -6z"/>
<path d="M5642 3245 c0 -16 2 -22 5 -12 2 9 2 23 0 30 -3 6 -5 -1 -5 -18z"/>
<path d="M5981 3029 c-12 -39 -21 -72 -19 -75 2 -2 14 28 27 67 12 39 21 72
19 75 -2 2 -14 -28 -27 -67z"/>
<path d="M5882 3000 c0 -14 2 -19 5 -12 2 6 2 18 0 25 -3 6 -5 1 -5 -13z"/>
<path d="M5722 2860 c0 -14 2 -19 5 -12 2 6 2 18 0 25 -3 6 -5 1 -5 -13z"/>
<path d="M5652 2675 c0 -16 2 -22 5 -12 2 9 2 23 0 30 -3 6 -5 -1 -5 -18z"/>
<path d="M5582 2665 c0 -16 2 -22 5 -12 2 9 2 23 0 30 -3 6 -5 -1 -5 -18z"/>
<path d="M5573 2560 c0 -25 2 -35 4 -22 2 12 2 32 0 45 -2 12 -4 2 -4 -23z"/>
<path d="M5971 2654 c0 -11 3 -14 6 -6 3 7 2 16 -1 19 -3 4 -6 -2 -5 -13z"/>
<path d="M5942 2630 c0 -19 2 -27 5 -17 2 9 2 25 0 35 -3 9 -5 1 -5 -18z"/>
<path d="M5963 2585 c0 -22 2 -30 4 -17 2 12 2 30 0 40 -3 9 -5 -1 -4 -23z"/>
<path d="M5872 2520 c0 -19 2 -27 5 -17 2 9 2 25 0 35 -3 9 -5 1 -5 -18z"/>
<path d="M5833 2425 c0 -33 2 -45 4 -27 2 18 2 45 0 60 -2 15 -4 0 -4 -33z"/>
<path d="M5773 2400 c0 -30 2 -43 4 -27 2 15 2 39 0 55 -2 15 -4 2 -4 -28z"/>
<path d="M6050 2229 c-36 -15 -58 -28 -50 -29 17 0 120 46 120 55 0 3 -1 5 -2
4 -2 -1 -32 -14 -68 -30z"/>
<path d="M5172 2220 c0 -14 2 -19 5 -12 2 6 2 18 0 25 -3 6 -5 1 -5 -13z"/>
<path d="M5231 2194 c0 -11 3 -14 6 -6 3 7 2 16 -1 19 -3 4 -6 -2 -5 -13z"/>
<path d="M5958 2193 c7 -3 16 -2 19 1 4 3 -2 6 -13 5 -11 0 -14 -3 -6 -6z"/>
<path d="M5291 2174 c0 -11 3 -14 6 -6 3 7 2 16 -1 19 -3 4 -6 -2 -5 -13z"/>
<path d="M5532 2125 c0 -16 2 -22 5 -12 2 9 2 23 0 30 -3 6 -5 -1 -5 -18z"/>
<path d="M5312 1970 c0 -19 2 -27 5 -17 2 9 2 25 0 35 -3 9 -5 1 -5 -18z"/>
<path d="M5474 1905 c0 -60 1 -84 3 -52 2 32 2 81 0 110 -2 29 -3 3 -3 -58z"/>
<path d="M5513 1885 c0 -33 2 -45 4 -27 2 18 2 45 0 60 -2 15 -4 0 -4 -33z"/>
<path d="M5593 1835 c0 -27 2 -38 4 -22 2 15 2 37 0 50 -2 12 -4 0 -4 -28z"/>
<path d="M5562 1835 c0 -16 2 -22 5 -12 2 9 2 23 0 30 -3 6 -5 -1 -5 -18z"/>
<path d="M5651 1804 c0 -11 3 -14 6 -6 3 7 2 16 -1 19 -3 4 -6 -2 -5 -13z"/>
<path d="M978 4333 c-13 -13 -20 -14 -31 -4 -8 6 -21 9 -28 6 -15 -6 -69 -90
-69 -106 0 -6 -9 -8 -19 -4 -25 7 -41 -16 -75 -107 -16 -41 -29 -106 -36 -175
-6 -59 -15 -124 -21 -143 -5 -19 -13 -87 -16 -150 -6 -112 -7 -116 -39 -152
-57 -63 -57 -158 -1 -258 l30 -56 -39 -59 c-22 -33 -89 -141 -149 -239 -98
-162 -109 -184 -108 -226 1 -87 74 -180 181 -230 61 -29 104 -34 175 -21 77
14 111 40 148 113 39 76 109 266 145 388 15 52 32 100 36 106 5 7 25 15 44 19
66 12 144 112 144 186 0 24 13 44 63 96 34 36 81 85 105 110 23 24 51 61 61
81 11 20 50 73 86 117 72 85 89 117 80 146 -3 10 1 39 10 64 10 30 12 52 6 63
-5 10 -7 29 -4 43 3 16 -1 30 -11 38 -9 8 -16 20 -16 27 0 16 -31 19 -46 4 -8
-8 -11 2 -10 32 1 37 -2 43 -21 46 -15 2 -23 11 -25 30 -2 16 -12 31 -26 38
-42 21 -72 57 -72 85 0 38 -31 47 -69 20 l-30 -21 -3 22 c-2 12 -13 27 -24 33
-12 6 -29 17 -38 24 -9 7 -26 11 -38 8 -12 -4 -28 -1 -35 5 -10 8 -20 8 -37 0
-18 -8 -27 -7 -40 6 -13 13 -21 14 -45 5 -17 -6 -35 -7 -42 -2 -20 13 -33 11
-51 -8z m134 -18 c9 -21 7 -41 -16 -116 -15 -50 -25 -93 -23 -96 3 -2 19 40
37 94 38 114 52 136 70 104 9 -17 6 -38 -15 -107 -14 -47 -24 -91 -22 -97 2
-7 19 34 37 90 31 98 51 126 73 104 7 -7 1 -41 -18 -101 -15 -50 -25 -93 -22
-96 3 -3 10 11 17 32 8 24 15 32 20 24 8 -13 26 63 21 88 -3 17 19 43 30 36
14 -8 10 -47 -11 -109 -11 -32 -20 -61 -20 -64 0 -14 19 18 29 49 6 19 27 52
47 73 29 32 38 36 50 26 17 -14 12 -51 -18 -119 -10 -25 -23 -63 -27 -85 -5
-22 -12 -49 -16 -60 -5 -11 -5 -17 0 -13 4 4 23 49 40 100 21 60 38 94 49 96
30 6 18 -51 -34 -157 -27 -56 -50 -105 -50 -109 1 -15 71 104 87 147 30 80 93
112 84 43 -2 -11 -55 -132 -69 -156 -3 -5 -1 -6 5 -3 5 3 24 35 42 71 33 68
55 86 70 59 8 -16 -4 -57 -30 -103 -5 -8 -16 -29 -24 -46 -9 -17 -25 -41 -35
-52 -11 -12 -20 -28 -20 -37 0 -8 -4 -15 -10 -15 -16 0 -12 11 35 105 54 109
59 138 7 40 -21 -38 -43 -69 -49 -68 -7 1 -9 -6 -5 -19 4 -18 2 -20 -17 -15
-18 4 -20 3 -10 -9 9 -11 9 -17 -1 -29 -12 -14 -15 -14 -31 1 -10 9 -15 23
-13 32 4 13 3 13 -6 -1 -10 -16 -8 -21 9 -33 12 -9 21 -22 21 -30 0 -16 -26
-19 -35 -4 -3 6 -10 10 -15 10 -5 0 2 -12 15 -26 38 -41 127 -221 114 -230 -6
-4 -15 -1 -20 7 -11 19 -42 56 -36 44 2 -5 12 -27 22 -48 l17 -37 -37 -46
c-23 -28 -43 -43 -52 -40 -8 3 -11 1 -8 -4 3 -5 -3 -19 -13 -31 -14 -14 -22
-17 -27 -9 -4 6 9 26 29 46 20 19 36 39 36 44 0 6 7 10 15 10 8 0 15 7 15 15
0 8 5 15 10 15 15 0 12 27 -4 33 -10 4 -13 1 -10 -7 3 -8 1 -17 -5 -20 -5 -4
-13 4 -17 16 -4 13 -2 24 4 26 14 4 -29 92 -55 113 -16 13 -17 13 -4 -3 7 -10
10 -26 6 -35 -6 -17 -7 -17 -21 2 -14 19 -16 19 -25 2 -10 -16 -12 -16 -40 3
-28 21 -38 40 -20 40 5 0 17 -7 26 -16 9 -9 19 -13 23 -9 4 4 2 10 -4 12 -6 2
-20 10 -30 18 -17 14 -17 16 -3 28 8 6 18 23 22 35 7 28 5 27 -26 -20 -24 -35
-47 -90 -32 -76 9 9 35 -9 35 -23 0 -14 -13 -10 -39 12 -21 17 -22 22 -10 30
7 5 10 9 5 9 -5 0 -3 6 3 14 9 10 6 17 -12 29 -22 14 -24 13 -43 -17 -11 -17
-28 -50 -39 -73 -21 -46 -23 -47 -44 -34 -11 7 -4 26 31 95 25 47 42 86 39 86
-4 0 -23 -25 -44 -56 -20 -31 -37 -54 -37 -51 0 4 32 75 71 159 78 168 95 208
81 193 -12 -13 -165 -339 -183 -387 -14 -41 -39 -59 -39 -29 0 11 18 54 40 97
22 43 39 83 37 89 -7 20 -93 -142 -121 -228 -5 -14 -10 -16 -25 -7 -22 11 -18
40 5 40 12 0 12 4 4 20 -8 15 -7 19 2 15 8 -2 38 47 81 137 37 77 66 142 64
144 -2 2 -28 -45 -58 -106 -30 -61 -55 -106 -57 -100 -2 5 26 85 63 176 37 91
65 167 63 169 -5 6 -62 -125 -109 -249 -22 -61 -38 -92 -41 -80 -5 26 -58 -88
-58 -126 0 -31 -7 -41 -24 -34 -13 5 -5 72 24 198 6 27 9 51 6 53 -8 8 -46
-125 -52 -183 -7 -52 -26 -85 -38 -66 -7 11 19 170 34 216 14 40 12 68 -2 39
-6 -13 -14 -23 -18 -23 -8 0 -24 -74 -39 -175 l-9 -60 -1 65 c0 36 6 103 14
149 14 80 14 124 -1 67 -13 -51 -14 -19 -4 100 10 121 44 254 68 262 16 5 15
-35 -4 -129 -9 -43 -14 -84 -11 -91 2 -7 7 7 11 32 23 137 88 312 108 292 11
-11 1 -95 -11 -87 -5 2 -6 -8 -4 -23 2 -21 1 -23 -5 -8 -6 13 -14 -6 -30 -75
-11 -52 -23 -114 -26 -139 l-6 -45 10 40 c6 22 17 73 26 112 8 40 20 72 26 70
6 -1 18 25 27 59 19 70 61 130 85 121 9 -4 16 -17 16 -29 0 -21 2 -20 20 10
24 38 46 41 62 7z m498 -325 c0 -22 -65 -140 -77 -140 -7 0 -13 5 -13 10 0 6
7 10 15 10 11 0 12 5 5 25 -12 31 -4 54 29 82 28 24 41 28 41 13z m7 -85 c-6
-19 -14 -35 -19 -35 -4 0 -8 -7 -8 -15 0 -7 -6 -18 -13 -22 -7 -4 -18 -21 -25
-37 -9 -21 -16 -26 -24 -18 -7 7 -4 17 11 33 11 13 21 28 21 35 0 7 3 14 8 16
4 2 15 20 24 41 22 47 40 49 25 2z m19 -60 c-7 -18 -26 -20 -26 -2 0 18 24 41
28 27 2 -6 1 -17 -2 -25z m-126 15 c0 -5 -5 -10 -11 -10 -5 0 -7 5 -4 10 3 6
8 10 11 10 2 0 4 -4 4 -10z m20 -35 c0 -8 -4 -15 -9 -15 -13 0 -22 16 -14 24
11 11 23 6 23 -9z m-25 -28 c10 -19 15 -40 13 -48 -4 -9 -10 -4 -18 16 -7 17
-16 38 -21 48 -17 32 8 17 26 -16z m91 -4 c-10 -10 -19 5 -10 18 6 11 8 11 12
0 2 -7 1 -15 -2 -18z m-137 -65 c36 -75 42 -98 23 -98 -4 0 -12 10 -17 23 -6
12 -24 45 -39 74 -24 44 -30 83 -11 83 2 0 22 -37 44 -82z m36 -15 c-6 -15
-11 -10 -26 26 -27 61 -15 90 13 34 13 -26 18 -48 13 -60z m121 45 c-3 -18
-12 -38 -20 -43 -7 -6 -16 -20 -20 -33 -8 -25 -36 -30 -36 -7 0 8 5 15 10 15
6 0 10 7 10 15 0 8 5 15 10 15 6 0 10 7 10 16 0 22 19 54 32 54 7 0 8 -12 4
-32z m-166 -100 c23 -44 39 -82 36 -86 -9 -9 -20 6 -70 97 -25 46 -43 88 -39
94 8 13 23 -7 73 -105z m102 74 c-7 -2 -12 -10 -12 -18 0 -9 -4 -12 -10 -9 -6
4 -3 16 7 32 12 17 19 21 22 12 2 -7 -1 -15 -7 -17z m-378 -31 c3 -4 -3 -16
-14 -26 -12 -10 -20 -13 -20 -7 0 7 4 12 10 12 5 0 7 7 4 15 -6 16 11 21 20 6z
m346 -15 c0 -8 -4 -18 -10 -21 -5 -3 -10 3 -10 14 0 12 5 21 10 21 6 0 10 -6
10 -14z m-803 -98 c-2 -18 -4 -4 -4 32 0 36 2 50 4 33 2 -18 2 -48 0 -65z
m821 55 c-2 -10 -10 -17 -16 -15 -7 1 -12 -5 -12 -13 0 -8 -4 -15 -10 -15 -14
0 -13 7 6 35 19 29 37 33 32 8z m-408 -14 c-7 -11 -14 -19 -16 -16 -7 7 7 37
17 37 6 0 5 -9 -1 -21z m40 -7 c0 -4 -7 -18 -16 -30 -8 -12 -13 -26 -10 -30 3
-5 -1 -9 -9 -9 -19 0 -19 12 2 48 16 27 33 38 33 21z m30 -11 c0 -5 9 -12 19
-16 12 -4 18 -12 14 -21 -8 -20 -23 -17 -17 4 5 16 5 16 -6 0 -12 -20 -36 -25
-24 -6 5 8 2 9 -9 5 -20 -7 -21 -3 -7 24 11 20 30 26 30 10z m159 -17 c6 -15
9 -29 6 -33 -8 -8 -45 41 -39 51 9 15 21 8 33 -18z m-65 -6 c-35 -43 -55 -60
-61 -54 -3 3 6 15 20 27 15 11 27 27 27 35 0 8 7 14 17 14 14 0 14 -3 -3 -22z
m26 -8 c0 -5 -5 -10 -11 -10 -5 0 -7 5 -4 10 3 6 8 10 11 10 2 0 4 -4 4 -10z
m-260 -11 c0 -6 -6 -17 -14 -25 -8 -7 -16 -19 -19 -26 -2 -7 -8 -10 -12 -6
-10 10 17 68 32 68 7 0 13 -5 13 -11z m-75 -12 c13 -10 15 -16 6 -21 -17 -11
-41 0 -41 19 0 19 11 19 35 2z m360 -7 c3 -6 -1 -13 -9 -16 -9 -3 -16 -12 -16
-20 0 -8 -7 -14 -15 -14 -8 0 -15 7 -15 15 0 8 7 15 15 15 8 0 15 7 15 15 0
17 16 20 25 5z m-155 -15 c10 -12 10 -15 -4 -15 -9 0 -16 -5 -16 -11 0 -16
-29 -41 -40 -34 -5 3 -10 11 -10 16 0 6 5 7 10 4 6 -3 10 1 10 9 0 9 5 16 10
16 6 0 10 7 10 15 0 8 4 15 9 15 5 0 14 -7 21 -15z m-333 -10 c152 -15 306
-121 338 -233 17 -58 15 -126 -4 -145 -19 -19 -23 0 -6 32 9 17 11 31 5 31 -5
0 -10 -7 -10 -15 0 -8 -4 -15 -9 -15 -5 0 -11 -6 -14 -12 -2 -7 -2 0 1 16 3
19 1 26 -7 22 -6 -4 -14 0 -17 9 -5 13 -9 12 -25 -6 -16 -18 -20 -19 -25 -6
-5 13 -9 12 -27 -6 l-21 -21 -9 22 c-6 12 -16 22 -23 22 -8 0 -20 24 -29 55
-9 30 -20 57 -25 60 -5 3 -3 -13 5 -36 17 -47 11 -64 -11 -35 -8 12 -14 15
-14 7 0 -9 -4 -10 -12 -4 -7 5 -37 8 -66 7 -47 -1 -54 2 -67 25 -8 14 -14 22
-14 16 -1 -5 3 -17 8 -25 13 -20 2 -33 -15 -19 -9 7 -14 8 -12 3 3 -12 -33
-54 -47 -54 -17 1 -73 93 -80 133 -10 52 1 101 32 138 41 48 49 49 200 34z
m263 5 c0 -5 -5 -10 -11 -10 -5 0 -7 -4 -4 -10 3 -5 -1 -10 -9 -10 -14 0 -14
3 -4 20 14 21 28 27 28 10z m110 -19 c0 -6 -4 -13 -10 -16 -5 -3 -10 1 -10 9
0 9 5 16 10 16 6 0 10 -4 10 -9z m140 -12 c0 -24 -23 -21 -28 4 -2 10 3 17 12
17 10 0 16 -9 16 -21z m-75 -9 c3 -6 -1 -13 -9 -16 -9 -3 -16 -12 -16 -20 0
-17 -16 -19 -25 -3 -4 6 1 19 11 29 22 22 30 24 39 10z m-113 -28 c-12 -11
-19 -21 -16 -25 3 -3 1 -8 -5 -12 -6 -3 -11 -1 -11 6 0 15 41 61 48 54 3 -3
-4 -13 -16 -23z m164 17 c3 -6 1 -16 -5 -22 -9 -9 -14 -8 -21 3 -9 15 -4 30
10 30 5 0 12 -5 16 -11z m-26 -41 c0 -5 -6 -8 -14 -5 -8 3 -13 -1 -12 -10 0
-9 -5 -18 -11 -20 -18 -7 -16 17 3 38 17 19 34 17 34 -3z m-75 -9 c0 -7 -10
-18 -22 -25 -13 -6 -20 -14 -16 -17 3 -4 1 -7 -5 -7 -22 0 -22 19 0 43 25 26
43 29 43 6z m5 -64 c-27 -29 -40 -32 -40 -9 0 10 6 14 15 10 8 -3 14 -2 13 2
-1 4 2 15 7 25 5 13 11 15 18 8 8 -8 4 -18 -13 -36z m50 -20 c0 -7 -9 -16 -19
-20 -11 -3 -22 -13 -25 -21 -3 -8 -10 -12 -16 -9 -15 9 -12 35 5 35 8 0 19 9
25 20 12 22 30 18 30 -5z m-371 -101 c47 -18 91 -79 98 -135 5 -36 4 -37 -21
-35 -23 3 -26 0 -20 -17 5 -16 3 -19 -10 -14 -14 6 -16 3 -11 -13 9 -29 -10
-25 -43 8 -15 15 -20 19 -11 7 25 -31 49 -82 42 -89 -4 -3 0 -6 7 -6 7 0 10
-3 7 -7 -4 -3 1 -11 10 -18 11 -8 14 -18 9 -31 -7 -16 -11 -13 -26 21 -10 22
-32 56 -50 75 l-31 35 25 -40 c14 -22 26 -45 26 -52 0 -6 7 -19 16 -28 9 -9
13 -19 9 -23 -4 -4 -10 -1 -12 5 -3 7 -20 29 -40 50 -34 37 -35 37 -13 5 26
-39 19 -53 -12 -26 -23 19 -23 19 -6 -1 18 -22 42 -75 40 -87 -1 -5 2 -8 8 -8
16 0 32 -40 22 -53 -6 -7 -12 -21 -14 -32 -5 -19 -5 -19 -13 -1 -5 11 -3 21 4
25 16 10 -16 82 -48 106 l-25 19 23 -32 c13 -19 20 -40 17 -49 -6 -14 -10 -13
-34 8 l-27 24 23 -26 c21 -24 29 -49 16 -49 -3 0 -19 11 -36 25 -16 14 -35 25
-41 25 -7 -1 0 -7 14 -15 39 -21 57 -55 55 -107 0 -25 -4 -50 -8 -54 -5 -4 -8
-2 -8 4 0 7 -7 20 -14 29 -50 60 -53 62 -21 10 20 -31 33 -62 30 -67 -3 -6 1
-10 10 -10 10 0 13 5 9 12 -4 6 0 16 8 22 8 6 17 20 21 30 4 10 10 16 14 12 3
-3 -3 -25 -15 -48 -12 -24 -25 -61 -30 -82 -4 -22 -13 -41 -19 -43 -19 -7 -28
47 -13 71 12 20 12 20 -5 6 -14 -12 -19 -12 -23 -2 -6 20 -54 73 -60 68 -3 -3
0 -12 7 -19 12 -15 5 -47 -11 -47 -5 0 -6 10 -3 21 5 14 3 19 -3 15 -6 -3 -19
12 -29 34 -13 28 -28 44 -56 55 -37 15 -63 13 -52 -5 3 -5 1 -11 -5 -15 -13
-8 -13 -45 1 -45 5 0 7 -5 3 -11 -3 -6 -2 -14 4 -18 15 -9 27 -61 13 -61 -6 0
-8 7 -4 17 4 11 3 14 -5 9 -8 -5 -12 0 -12 13 0 12 -4 21 -10 21 -5 0 -6 7 -3
17 4 11 3 14 -5 9 -20 -12 -27 25 -8 40 15 10 16 16 6 34 -11 21 -17 22 -71
16 -32 -3 -59 -4 -59 -1 0 3 20 36 44 73 24 38 74 124 111 193 84 153 116 202
158 233 52 39 121 46 186 20z m192 -87 c-8 -8 -11 -5 -11 9 0 27 14 41 18 19
2 -9 -1 -22 -7 -28z m-41 14 c0 -20 -13 -35 -23 -25 -7 8 4 44 14 44 5 0 9 -9
9 -19z m56 -58 c-11 -11 -19 6 -11 24 8 17 8 17 12 0 3 -10 2 -21 -1 -24z
m-46 6 c0 -6 -5 -19 -10 -30 -13 -23 -7 -25 14 -3 15 14 16 14 16 -5 0 -11 -9
-25 -20 -31 -17 -9 -20 -6 -26 24 -6 35 0 56 17 56 5 0 9 -5 9 -11z m-70 -104
c-6 -8 -9 -19 -6 -24 4 -5 2 -12 -3 -15 -5 -4 -12 -2 -16 3 -7 12 15 51 29 51
4 0 3 -7 -4 -15z m-22 -63 c2 -12 -1 -22 -7 -22 -6 0 -11 4 -11 9 0 5 -3 17
-7 27 -4 12 -2 15 8 12 8 -2 15 -14 17 -26z m-28 -97 c0 -8 -5 -15 -11 -15 -6
0 -9 -7 -5 -15 6 -18 -10 -20 -20 -3 -4 6 -2 14 4 16 7 2 12 10 12 18 0 8 5
14 10 14 6 0 10 -7 10 -15z m-60 -79 c0 -3 -4 -8 -10 -11 -5 -3 -10 -1 -10 4
0 6 5 11 10 11 6 0 10 -2 10 -4z m4 -86 c-6 -5 -24 21 -24 34 0 6 6 1 14 -10
8 -10 12 -21 10 -24z m-373 -13 c-8 -8 -11 -5 -11 9 0 27 14 41 18 19 2 -9 -1
-22 -7 -28z m-28 13 c-6 -24 -23 -37 -23 -18 0 12 18 38 26 38 1 0 0 -9 -3
-20z m108 6 c5 3 9 -4 9 -15 0 -12 -4 -21 -10 -21 -5 0 -10 4 -10 9 0 5 -2 15
-3 23 -2 7 -2 10 0 5 3 -4 9 -5 14 -1z m-140 -24 c16 -29 15 -52 -3 -52 -6 0
-8 9 -5 20 3 11 1 20 -5 20 -5 0 -6 5 -3 10 3 6 -1 10 -10 10 -9 0 -13 5 -10
10 10 16 19 12 36 -18z m395 1 c-10 -10 -19 5 -10 18 6 11 8 11 12 0 2 -7 1
-15 -2 -18z m-450 -28 c1 -49 -10 -60 -20 -20 -4 14 -1 34 6 45 7 11 13 20 13
20 0 0 0 -20 1 -45z m234 35 c0 -5 -5 -10 -11 -10 -5 0 -7 5 -4 10 3 6 8 10
11 10 2 0 4 -4 4 -10z m-210 -30 c0 -5 -4 -10 -10 -10 -5 0 -10 5 -10 10 0 6
5 10 10 10 6 0 10 -4 10 -10z m80 1 c0 -6 -4 -13 -10 -16 -5 -3 -10 1 -10 9 0
9 5 16 10 16 6 0 10 -4 10 -9z m150 0 c0 -6 -4 -13 -10 -16 -5 -3 -10 1 -10 9
0 9 5 16 10 16 6 0 10 -4 10 -9z m-65 -10 c3 -5 1 -12 -5 -16 -5 -3 -10 1 -10
9 0 18 6 21 15 7z m35 5 c0 -3 -4 -8 -10 -11 -5 -3 -10 -1 -10 4 0 6 5 11 10
11 6 0 10 -2 10 -4z m-105 -45 c-9 -16 -25 -3 -18 15 4 10 9 12 15 6 6 -6 7
-15 3 -21z m155 8 c0 -5 -4 -9 -10 -9 -5 0 -10 7 -10 16 0 8 5 12 10 9 6 -3
10 -10 10 -16z m-199 -22 c-8 -8 -11 -7 -11 4 0 20 13 34 18 19 3 -7 -1 -17
-7 -23z m159 18 c0 -8 5 -15 10 -15 6 0 10 -7 10 -15 0 -21 -16 -19 -24 3 -3
9 -9 23 -12 30 -3 6 -1 12 5 12 6 0 11 -7 11 -15z m-180 -40 c9 5 10 1 5 -14
-3 -12 -2 -21 4 -21 5 0 11 10 13 22 5 35 25 32 32 -6 4 -19 12 -37 19 -39 9
-3 8 -9 -4 -21 -15 -16 -19 -14 -67 29 -29 26 -52 54 -52 62 0 14 3 14 19 -1
11 -10 25 -15 31 -11z m91 -5 c6 0 7 -9 4 -21 -5 -15 -4 -19 4 -15 6 4 11 1
11 -8 0 -30 -19 -25 -25 6 -4 18 -12 36 -18 39 -5 4 -6 12 -1 20 7 11 9 10 12
-3 2 -10 8 -18 13 -18z m79 10 c0 -5 -4 -10 -10 -10 -5 0 -10 5 -10 10 0 6 5
10 10 10 6 0 10 -4 10 -10z m131 -40 c14 -9 22 -80 9 -80 -7 0 -9 8 -4 23 3
12 3 19 -1 15 -12 -11 -37 43 -29 61 6 14 7 14 12 1 3 -8 8 -17 13 -20z m-160
-23 c-8 -8 -11 -5 -11 9 0 27 14 41 18 19 2 -9 -1 -22 -7 -28z m79 34 c0 -6
-4 -13 -10 -16 -5 -3 -10 1 -10 9 0 9 5 16 10 16 6 0 10 -4 10 -9z m7 -43 c-3
-8 -6 -5 -6 6 -1 11 2 17 5 13 3 -3 4 -12 1 -19z m-62 -15 c-7 -30 -21 -50
-30 -41 -8 8 16 68 27 68 6 0 7 -11 3 -27z m-35 -7 c0 -15 -18 -31 -26 -23 -7
7 7 37 17 37 5 0 9 -6 9 -14z m-40 -6 c0 -5 -5 -10 -11 -10 -5 0 -7 5 -4 10 3
6 8 10 11 10 2 0 4 -4 4 -10z m170 -16 c0 -16 -27 -30 -38 -20 -3 4 0 11 7 15
7 5 11 14 7 20 -5 7 -1 9 8 5 9 -3 16 -13 16 -20z m-66 0 c9 -23 8 -24 -14
-24 -22 0 -23 1 -14 24 8 20 20 20 28 0z m96 6 c0 -5 -4 -10 -10 -10 -5 0 -10
5 -10 10 0 6 5 10 10 10 6 0 10 -4 10 -10z"/>
<path d="M962 4213 c-25 -83 -44 -164 -39 -169 2 -2 18 49 35 113 34 128 37
165 4 56z"/>
<path d="M1040 4239 c-6 -24 -18 -68 -27 -97 -8 -30 -13 -55 -10 -58 2 -2 16
39 30 93 15 53 25 99 22 101 -2 2 -9 -16 -15 -39z"/>
<path d="M1172 4123 c-12 -37 -20 -69 -18 -71 2 -2 14 27 26 63 12 36 20 68
18 70 -2 3 -14 -26 -26 -62z"/>
<path d="M1316 4135 c-9 -26 -7 -32 5 -12 6 10 9 21 6 23 -2 3 -7 -2 -11 -11z"/>
<path d="M1241 4114 c0 -11 3 -14 6 -6 3 7 2 16 -1 19 -3 4 -6 -2 -5 -13z"/>
<path d="M1266 4019 c-21 -44 -36 -83 -33 -85 2 -2 20 33 40 78 21 45 35 83
33 85 -1 2 -20 -33 -40 -78z"/>
<path d="M1221 4044 c0 -11 3 -14 6 -6 3 7 2 16 -1 19 -3 4 -6 -2 -5 -13z"/>
<path d="M1211 4004 c0 -11 3 -14 6 -6 3 7 2 16 -1 19 -3 4 -6 -2 -5 -13z"/>
<path d="M946 3985 c-9 -26 -7 -32 5 -12 6 10 9 21 6 23 -2 3 -7 -2 -11 -11z"/>
<path d="M926 3935 c-9 -26 -7 -32 5 -12 6 10 9 21 6 23 -2 3 -7 -2 -11 -11z"/>
<path d="M832 3900 c0 -14 2 -19 5 -12 2 6 2 18 0 25 -3 6 -5 1 -5 -13z"/>
<path d="M1216 3905 c-9 -26 -7 -32 5 -12 6 10 9 21 6 23 -2 3 -7 -2 -11 -11z"/>
<path d="M1372 3895 c-6 -14 -8 -25 -3 -25 8 0 23 41 17 47 -1 2 -8 -8 -14
-22z"/>
<path d="M901 3854 c0 -11 3 -14 6 -6 3 7 2 16 -1 19 -3 4 -6 -2 -5 -13z"/>
<path d="M1357 3660 c21 -32 39 -57 41 -55 4 4 -66 115 -73 115 -3 0 12 -27
32 -60z"/>
<path d="M1275 3690 c3 -5 8 -10 11 -10 2 0 4 5 4 10 0 6 -5 10 -11 10 -5 0
-7 -4 -4 -10z"/>
<path d="M1546 3923 c-6 -14 -5 -15 5 -6 7 7 10 15 7 18 -3 3 -9 -2 -12 -12z"/>
<path d="M827 3343 c7 -20 33 -60 33 -52 0 9 -31 69 -35 69 -3 0 -2 -8 2 -17z"/>
<path d="M915 3090 c31 -32 48 -39 39 -15 -3 8 -20 22 -37 30 l-31 16 29 -31z"/>
<path d="M760 2777 c0 -2 19 -19 43 -37 23 -19 36 -26 28 -17 -15 19 -71 61
-71 54z"/>
<path d="M707 2759 c7 -7 15 -10 18 -7 3 3 -2 9 -12 12 -14 6 -15 5 -6 -5z"/>
<path d="M722 2715 c9 -10 21 -16 28 -13 7 2 -1 10 -16 17 -27 12 -28 11 -12
-4z"/>
<path d="M3490 2368 c-11 -18 -23 -44 -26 -58 -39 -165 -106 -406 -114 -408
-6 -2 -31 -19 -55 -38 -24 -18 -63 -43 -87 -55 -125 -64 -297 -189 -457 -332
-30 -27 -65 -53 -78 -58 -15 -5 -23 -17 -23 -32 0 -30 -36 -63 -62 -59 -25 4
-39 -15 -32 -43 7 -29 -31 -75 -59 -72 -18 2 -23 -4 -25 -28 -5 -48 -23 -85
-42 -85 -22 0 -44 -25 -35 -40 13 -21 -16 -70 -40 -70 -24 0 -38 -21 -29 -44
3 -7 -8 -35 -25 -61 -16 -26 -27 -53 -25 -60 3 -7 -7 -37 -23 -66 -32 -63 -43
-175 -23 -243 29 -98 109 -156 226 -164 138 -9 278 49 390 159 39 39 82 76 95
83 14 6 25 22 27 36 4 28 39 70 58 70 14 0 35 24 38 44 3 23 57 76 76 76 20 0
40 19 40 40 0 21 71 90 93 90 10 0 20 12 24 29 8 28 80 95 146 134 69 42 314
225 356 267 25 25 59 52 74 60 16 8 35 27 43 42 8 15 20 28 27 28 25 0 98 73
124 124 25 48 27 63 35 261 11 245 7 421 -11 453 -22 41 -48 28 -72 -38 -12
-33 -25 -63 -29 -65 -3 -2 -14 29 -24 70 -14 60 -21 75 -36 75 -13 0 -24 -15
-38 -51 -20 -55 -26 -55 -36 2 -7 40 -31 68 -45 53 -5 -5 -14 -27 -21 -49
l-13 -40 -10 30 c-23 71 -61 77 -83 13 l-12 -33 -11 30 c-6 17 -14 36 -16 43
-3 7 -15 12 -27 10 -17 -2 -26 -15 -37 -50 -8 -27 -18 -48 -21 -48 -4 0 -10
17 -14 39 -3 21 -12 44 -21 51 -12 10 -18 6 -35 -22z m49 -60 c12 -64 7 -134
-20 -256 -17 -80 -32 -65 -26 26 4 55 2 70 -4 52 -14 -34 -7 -142 8 -148 18
-5 32 37 54 163 33 191 57 251 80 204 38 -76 41 -94 25 -161 -8 -36 -17 -77
-20 -89 -2 -13 -7 -41 -11 -61 -10 -54 -29 -48 -23 7 3 25 1 45 -4 45 -5 0 -8
-24 -6 -52 2 -39 7 -53 18 -53 18 0 68 182 70 255 2 56 21 122 38 128 6 2 12
-3 12 -11 0 -9 6 -17 12 -19 9 -3 8 -9 -5 -22 -9 -10 -16 -27 -16 -39 2 -22 2
-22 6 1 8 40 21 23 28 -37 4 -34 3 -67 -3 -78 -6 -10 -13 -47 -16 -83 -6 -76
-15 -110 -28 -110 -5 0 -7 40 -4 93 4 67 3 81 -4 52 -5 -22 -9 -68 -9 -102 -1
-55 1 -63 17 -63 24 0 36 41 57 190 20 146 41 216 61 199 8 -6 14 -22 14 -35
0 -12 6 -29 14 -36 15 -16 14 -74 -2 -90 -8 -8 -8 -17 -1 -30 9 -16 6 -25 -12
-44 -18 -19 -19 -24 -6 -18 15 5 16 3 8 -17 -5 -13 -12 -41 -16 -62 -4 -22
-10 -35 -16 -31 -6 3 -8 16 -4 28 11 36 15 135 6 141 -12 7 -25 -136 -17 -170
4 -14 12 -25 20 -25 17 0 31 51 61 216 27 151 42 204 56 204 6 0 7 -14 4 -32
-39 -226 -56 -408 -36 -408 4 0 37 84 71 188 34 103 70 201 79 217 l16 30 3
-32 c2 -18 7 -33 12 -33 4 0 8 -46 8 -102 -1 -84 -4 -109 -20 -135 -11 -18
-21 -33 -23 -33 -2 0 -12 -3 -22 -7 -16 -6 -16 -5 -5 10 8 9 11 21 7 27 -4 6
-1 18 6 26 11 14 20 53 21 94 1 8 5 20 10 27 5 7 6 18 2 24 -4 8 -15 -13 -26
-52 -24 -88 -56 -229 -50 -229 5 0 39 43 41 52 3 14 46 54 54 50 4 -2 4 -8 0
-15 -3 -6 -7 -34 -8 -61 0 -28 -4 -56 -8 -63 -4 -6 -2 -13 4 -15 6 -2 1 -16
-13 -33 -12 -17 -15 -24 -6 -17 14 11 16 7 23 -34 12 -86 -13 -167 -76 -239
-43 -49 -60 -46 -54 8 3 23 7 59 9 80 14 135 -102 221 -341 254 -89 12 -130
13 -172 5 -31 -5 -57 -9 -59 -8 -3 4 96 373 114 424 9 23 19 40 24 37 4 -3 13
-33 19 -67z m420 -61 c-2 -56 -14 -91 -30 -82 -5 4 -6 11 -2 18 3 6 8 29 9 51
3 73 4 77 14 71 6 -4 10 -30 9 -58z m-7 -130 c-6 -12 -16 -43 -22 -70 -12 -46
-30 -73 -30 -44 0 40 22 123 37 140 21 22 30 6 15 -26z m-307 -222 c113 -20
222 -69 256 -116 43 -60 36 -220 -13 -299 -27 -45 -35 -24 -14 37 35 101 7
197 -76 264 -105 83 -346 115 -483 63 -18 -7 -19 -6 -5 11 45 55 164 69 335
40z m-30 -60 c136 -35 222 -102 244 -190 10 -39 8 -51 -19 -118 -17 -42 -30
-79 -30 -84 0 -5 -7 -19 -16 -32 -13 -18 -18 -20 -25 -10 -7 11 -9 11 -9 -1 0
-16 -55 -70 -71 -70 -5 0 -9 -3 -9 -8 0 -4 -27 -25 -60 -47 -33 -22 -60 -43
-60 -47 0 -5 -7 -8 -15 -8 -8 0 -15 -4 -15 -8 0 -4 -13 -16 -30 -25 -16 -10
-35 -23 -43 -30 -7 -7 -26 -19 -43 -28 -36 -19 -52 -7 -61 45 -6 37 -44 66
-86 66 -96 0 -245 -87 -364 -214 -83 -88 -130 -158 -169 -253 l-24 -58 26 -20
c51 -39 81 -70 97 -104 17 -34 15 -71 -4 -71 -5 0 -20 -9 -32 -20 -52 -49
-178 -105 -262 -116 -16 -3 -40 -7 -53 -10 -43 -9 -133 26 -180 70 -42 40 -44
45 -55 123 -18 141 20 220 141 288 168 94 318 306 352 495 7 36 14 74 16 85 4
22 185 181 303 265 42 30 104 68 136 85 118 58 302 80 420 50z m-885 -447 c-1
-163 -185 -431 -360 -522 -39 -21 -74 -36 -76 -33 -3 3 6 24 21 47 23 36 30
41 53 36 l27 -6 -27 15 c-16 9 -28 24 -28 35 0 23 17 25 44 5 11 -8 24 -15 30
-15 5 0 1 6 -10 14 -18 14 -18 17 -3 43 9 15 22 27 30 25 9 -2 8 3 -5 17 -32
35 -9 43 45 16 27 -14 49 -23 49 -20 0 2 -13 11 -30 20 -35 18 -37 34 -12 65
16 20 21 21 41 11 13 -7 25 -11 27 -8 3 2 -11 12 -31 21 -19 9 -35 21 -35 26
0 18 20 20 51 5 17 -9 33 -14 36 -11 3 3 -2 8 -11 12 -21 8 -20 24 4 52 14 17
26 22 42 17 22 -6 22 -6 4 9 -11 9 -23 16 -28 16 -4 0 -8 9 -8 20 0 25 7 25
48 0 40 -25 51 -26 23 -2 l-21 17 29 31 c22 23 27 34 18 43 -6 6 -8 14 -4 18
4 4 13 1 19 -5 13 -13 29 -16 27 -4 -3 18 2 32 11 32 6 0 10 -19 10 -42z m578
-180 c7 -7 12 -24 12 -39 0 -15 7 -34 15 -43 8 -8 15 -19 15 -25 0 -6 5 -11
11 -11 7 0 -10 -20 -37 -45 -26 -25 -49 -45 -50 -45 -2 0 -6 16 -10 36 -4 20
-13 44 -21 53 -8 9 -23 27 -34 41 -13 18 -12 12 5 -20 28 -51 60 -140 53 -146
-7 -8 -37 26 -37 42 0 25 -37 88 -67 114 l-28 25 23 -26 c12 -14 22 -31 22
-37 0 -7 5 -12 10 -12 6 0 10 -9 10 -19 0 -11 4 -22 9 -25 4 -3 11 -19 15 -36
4 -24 0 -37 -21 -60 -14 -17 -30 -30 -35 -30 -4 0 -11 18 -14 41 -5 26 -19 54
-40 78 -39 42 -45 35 -10 -12 24 -33 56 -117 56 -149 0 -20 -29 -25 -34 -5 -2
6 -9 32 -16 55 -6 25 -27 60 -47 80 l-35 37 31 -47 c17 -26 31 -56 31 -67 0
-11 5 -23 10 -26 19 -11 10 -51 -15 -74 -25 -21 -45 -21 -45 1 0 16 -40 100
-58 121 -8 9 -20 17 -26 17 -6 0 -3 -5 6 -10 24 -14 94 -198 80 -212 -17 -17
-28 -2 -41 59 -19 83 -36 120 -63 133 -21 12 -21 10 5 -17 16 -17 27 -40 27
-56 0 -15 7 -44 15 -64 8 -19 15 -43 15 -53 0 -22 -35 -54 -50 -45 -7 4 -8 -6
-4 -36 6 -33 4 -41 -7 -37 -7 2 -22 -4 -33 -14 -26 -24 -33 -23 -40 6 -8 32
-62 83 -103 97 -18 6 -33 17 -33 26 0 9 19 51 42 94 108 203 345 398 484 399
22 0 45 -5 52 -12z"/>
<path d="M4061 2264 c0 -11 3 -14 6 -6 3 7 2 16 -1 19 -3 4 -6 -2 -5 -13z"/>
<path d="M3492 2205 c0 -16 2 -22 5 -12 2 9 2 23 0 30 -3 6 -5 -1 -5 -18z"/>
<path d="M3717 2203 c-4 -3 -7 -13 -7 -22 1 -13 3 -13 11 2 11 19 8 33 -4 20z"/>
<path d="M3821 2191 c-7 -5 -12 -14 -10 -20 2 -6 10 -2 17 9 14 22 13 23 -7
11z"/>
<path d="M4029 1933 c-13 -16 -12 -17 4 -4 16 13 21 21 13 21 -2 0 -10 -8 -17
-17z"/>
<path d="M3999 1893 c-13 -16 -12 -17 4 -4 16 13 21 21 13 21 -2 0 -10 -8 -17
-17z"/>
<path d="M3987 1826 c-36 -33 -45 -46 -29 -46 7 0 77 80 70 80 -2 0 -21 -15
-41 -34z"/>
<path d="M4009 1803 c-13 -16 -12 -17 4 -4 16 13 21 21 13 21 -2 0 -10 -8 -17
-17z"/>
<path d="M3979 1763 c-13 -16 -12 -17 4 -4 9 7 17 15 17 17 0 8 -8 3 -21 -13z"/>
<path d="M3246 1770 c-27 -11 -54 -24 -60 -31 -6 -6 3 -4 19 4 17 8 49 18 70
22 l40 6 -36 -14 c-58 -22 -156 -85 -185 -120 -35 -41 -74 -125 -74 -158 0
-38 23 -52 82 -50 43 1 62 7 104 36 70 48 181 165 190 200 10 41 -7 78 -46 97
l-35 17 31 1 c17 0 46 -10 65 -23 31 -21 34 -27 32 -67 -2 -68 -13 -107 -36
-127 -20 -18 -20 -18 -8 5 21 40 4 23 -35 -36 -22 -33 -70 -83 -110 -115 -80
-63 -104 -76 -104 -56 -1 10 -5 8 -14 -4 -11 -14 -15 -15 -19 -5 -3 8 -6 6 -6
-6 -1 -14 -7 -17 -26 -14 -13 3 -26 1 -27 -4 -7 -19 -86 -21 -114 -3 -25 16
-26 21 -22 80 4 43 15 79 34 115 36 66 118 151 172 179 23 12 42 24 42 27 0
14 -103 -53 -143 -94 -91 -93 -139 -205 -122 -283 20 -88 202 -72 337 29 153
114 229 218 228 311 -1 90 -105 127 -224 81z m117 -40 c24 -28 21 -59 -9 -103
-29 -44 -43 -44 -21 0 24 47 30 82 6 38 -11 -22 -27 -50 -35 -63 l-15 -22 -49
25 c-27 14 -65 25 -85 25 -19 0 -35 4 -35 9 0 5 29 27 64 50 96 63 149 75 179
41z m-143 -131 c47 -20 66 -41 54 -60 -3 -5 -10 -9 -15 -9 -6 0 -7 6 -3 13 5
8 2 7 -9 -2 -10 -8 -15 -16 -12 -19 9 -9 -27 -42 -45 -42 -10 0 -23 -7 -30
-15 -10 -12 -28 -15 -64 -13 -44 3 -51 6 -54 25 -2 13 9 50 24 83 26 59 28 60
66 60 22 0 61 -9 88 -21z"/>
<path d="M3251 1684 c-22 -28 -20 -47 4 -38 13 5 45 47 45 59 0 15 -31 2 -49
-21z"/>
<path d="M3114 1565 c-18 -14 -17 -15 8 -4 15 6 34 9 42 6 18 -7 21 -37 6 -55
-5 -7 -3 -6 6 2 24 21 11 66 -19 66 -13 0 -32 -7 -43 -15z"/>
<path d="M3100 1511 c0 -10 19 -25 25 -20 1 2 -3 10 -11 17 -8 7 -14 8 -14 3z"/>
<path d="M3710 1598 c-74 -42 -263 -183 -325 -242 -64 -62 -52 -53 130 88 83
64 174 131 203 147 28 17 52 32 52 35 0 6 -2 6 -60 -28z"/>
<path d="M3745 1581 c-3 -5 -1 -12 4 -15 5 -3 11 1 15 9 6 16 -9 21 -19 6z"/>
<path d="M3634 1504 c-107 -79 -234 -192 -234 -206 0 -6 11 1 25 16 13 14 26
26 29 26 2 0 19 15 38 33 43 41 67 61 162 132 69 52 83 65 72 65 -2 0 -43 -30
-92 -66z"/>
<path d="M3806 1525 c-9 -26 -7 -32 5 -12 6 10 9 21 6 23 -2 3 -7 -2 -11 -11z"/>
<path d="M3708 1411 c-15 -48 -15 -49 3 -38 24 15 32 38 21 66 -7 19 -10 16
-24 -28z"/>
<path d="M3199 1403 c-13 -16 -12 -17 4 -4 9 7 17 15 17 17 0 8 -8 3 -21 -13z"/>
<path d="M3671 1388 c0 -9 -4 -25 -7 -35 -5 -17 -5 -17 6 0 6 10 9 25 7 35 -4
15 -5 15 -6 0z"/>
<path d="M3522 1340 c0 -14 2 -19 5 -12 2 6 2 18 0 25 -3 6 -5 1 -5 -13z"/>
<path d="M2662 561 c-23 -33 -42 -63 -42 -67 0 -9 37 34 43 49 2 7 8 9 12 5 4
-4 0 -19 -9 -32 -22 -35 -20 -44 4 -15 26 32 33 41 48 67 20 35 13 39 -13 7
-14 -17 -25 -24 -25 -16 0 8 7 23 17 33 9 10 14 20 11 23 -3 3 -24 -21 -46
-54z"/>
<path d="M2791 554 c0 -11 3 -14 6 -6 3 7 2 16 -1 19 -3 4 -6 -2 -5 -13z"/>
<path d="M2859 762 c11 -15 25 -45 30 -67 11 -41 31 -78 31 -59 0 36 -47 141
-66 148 -9 4 -7 -4 5 -22z"/>
<path d="M2915 745 c11 -23 22 -41 23 -39 9 7 -11 61 -26 71 -16 9 -16 6 3
-32z"/>
<path d="M1635 2252 c-91 -33 -194 -110 -353 -265 -170 -167 -240 -249 -326
-377 -31 -47 -74 -104 -96 -126 -39 -41 -100 -154 -100 -186 0 -9 -18 -55 -41
-102 -54 -112 -68 -118 -261 -114 -133 3 -137 2 -163 -22 -40 -38 -94 -140
-107 -204 -9 -49 -9 -63 5 -92 9 -19 24 -34 33 -34 9 0 40 -13 68 -29 94 -54
250 -117 426 -173 236 -76 299 -91 316 -77 7 6 30 61 50 122 40 120 47 192 23
243 -8 16 -56 62 -107 104 -107 86 -121 104 -99 128 9 9 32 55 51 102 37 87
96 189 129 225 10 11 25 31 34 45 8 14 29 32 46 40 22 10 33 23 35 41 3 30 66
109 86 109 16 0 46 32 46 50 0 21 60 79 75 73 21 -7 55 16 55 37 0 25 71 80
104 80 19 0 32 8 43 28 9 16 29 36 44 44 54 32 159 188 159 239 0 39 -38 88
-78 99 -45 12 -37 13 -97 -8z m124 -38 c12 -15 21 -36 21 -48 0 -36 -12 -66
-23 -59 -5 3 -7 1 -3 -5 7 -12 -13 -62 -25 -62 -11 0 -23 46 -15 59 14 22 -91
5 -138 -23 -161 -94 -427 -360 -488 -488 -13 -27 -25 -48 -28 -48 -3 0 -3 -37
-2 -83 3 -62 0 -87 -10 -98 -8 -8 -17 -22 -21 -31 -3 -10 -11 -18 -16 -18 -5
0 -12 8 -14 18 -2 9 -3 3 -1 -15 1 -17 -1 -33 -5 -35 -8 -3 -71 -132 -71 -146
0 -17 -31 -72 -41 -72 -6 0 -27 13 -47 29 -20 17 -50 33 -67 37 -45 10 -45 10
-18 74 23 52 30 60 53 60 17 0 39 14 66 43 46 47 74 86 74 102 0 5 -9 -4 -19
-21 -33 -54 -98 -116 -118 -112 -44 9 8 153 73 203 49 37 64 33 64 -17 0 -32
3 -39 10 -28 16 25 11 68 -10 83 -19 13 -19 15 21 73 99 142 385 445 507 538
145 110 250 143 291 90z m-72 -160 c-2 -13 0 -21 4 -18 23 14 5 -38 -23 -70
-38 -43 -63 -48 -54 -11 4 14 2 25 -4 25 -5 0 -10 9 -10 19 0 11 -4 23 -10 26
-6 4 -9 -9 -8 -32 2 -21 -1 -49 -5 -63 -4 -14 -4 -19 -1 -12 8 18 24 15 24 -6
0 -21 -19 -42 -38 -42 -11 0 -13 14 -10 59 2 39 -1 63 -10 71 -10 9 -10 15 -1
26 6 7 15 11 20 8 5 -3 9 -1 9 5 0 5 15 17 32 26 31 15 34 15 47 -2 12 -16 13
-16 8 -1 -3 9 -1 19 6 21 20 7 29 -4 24 -29z m-155 -71 c8 -94 4 -114 -29
-139 -17 -13 -34 -24 -37 -24 -3 0 -6 16 -6 35 0 19 -5 35 -10 35 -6 0 -8 -15
-5 -37 6 -42 -5 -95 -22 -100 -6 -2 -11 17 -12 49 0 29 -2 67 -4 83 -1 17 1
31 5 33 6 3 54 44 83 71 16 16 35 12 37 -6z m-144 -132 c7 -21 12 -47 12 -57
-1 -22 -33 -64 -49 -64 -6 0 -11 -4 -11 -10 0 -5 -4 -10 -10 -10 -5 0 -11 21
-12 48 -1 29 -4 16 -7 -38 -5 -73 -9 -85 -25 -88 -16 -3 -18 0 -13 24 3 16 2
50 -2 75 -4 25 -5 51 -3 57 7 21 21 13 25 -15 3 -23 4 -21 6 9 1 27 10 47 34
72 17 19 35 34 38 35 3 1 11 -16 17 -38z m-128 -170 c0 -42 -5 -59 -24 -82
-29 -34 -34 -30 -36 36 -2 69 -3 67 22 98 28 34 38 21 38 -52z m-90 -68 c0
-35 3 -44 10 -33 7 11 10 4 10 -25 0 -45 -25 -89 -46 -81 -7 3 -22 -9 -34 -30
-12 -18 -24 -34 -27 -34 -11 0 9 140 24 171 20 40 34 22 31 -38 -1 -23 2 -46
6 -50 5 -4 6 26 4 67 -6 78 -3 100 13 100 5 0 9 -21 9 -47z m-392 -509 c48
-20 95 -66 117 -115 10 -21 22 -39 27 -39 4 0 8 -7 8 -16 0 -10 -6 -14 -15
-10 -8 3 -15 1 -15 -4 0 -6 5 -10 11 -10 6 0 9 -7 6 -14 -4 -11 -1 -13 10 -9
13 5 15 2 9 -13 -6 -15 -5 -16 5 -7 10 10 9 16 -1 28 -20 24 2 41 26 21 11 -9
28 -22 38 -29 18 -13 18 -15 -12 -42 -18 -16 -32 -33 -32 -39 0 -5 15 4 33 22
35 34 53 41 44 18 -4 -9 0 -12 12 -9 49 13 19 -87 -43 -146 -33 -32 -37 -33
-53 -19 -10 8 -54 29 -98 46 -346 135 -427 166 -475 184 -30 11 -60 27 -66 34
-18 23 -72 -57 -80 -118 -8 -57 -24 -64 -24 -10 0 92 59 205 128 245 30 18 39
18 111 7 95 -16 177 -3 231 35 41 29 49 30 98 9z m-388 -221 c30 -11 120 -47
200 -81 80 -33 190 -78 245 -99 82 -32 100 -42 105 -63 9 -36 1 -52 -24 -44
-30 8 -249 104 -261 114 -10 8 -202 89 -312 131 -28 11 -54 27 -57 36 -7 18
24 45 39 33 5 -4 35 -16 65 -27z m-85 -47 c21 -14 26 -16 50 -16 9 0 15 -10
16 -22 1 -17 2 -19 6 -5 2 9 6 17 8 17 2 0 91 -38 197 -84 363 -157 357 -154
358 -182 0 -18 -204 44 -300 91 -25 12 -94 41 -155 66 -60 24 -113 48 -117 54
-4 5 -8 6 -8 1 0 -5 -6 -3 -13 3 -8 6 -17 8 -20 4 -4 -3 -8 5 -8 18 -1 17 -3
19 -6 7 -5 -19 -23 -25 -23 -8 0 6 -9 10 -20 10 -20 0 -25 15 -14 44 8 20 23
20 49 2z m10 -86 c32 -11 65 -26 73 -32 8 -7 18 -12 21 -11 10 5 71 -18 189
-69 120 -52 256 -102 309 -113 30 -6 51 -29 34 -39 -9 -6 -136 31 -311 90
-142 48 -382 160 -388 182 -5 16 5 15 73 -8z m785 0 c0 -5 -5 -10 -11 -10 -6
0 -9 -7 -5 -15 3 -8 2 -15 -3 -15 -5 0 -12 -11 -15 -25 -6 -24 -26 -36 -26
-15 0 6 4 10 10 10 5 0 7 7 4 15 -4 8 -1 15 5 15 6 0 10 3 9 8 0 4 2 15 6 25
9 18 26 23 26 7z m-89 -84 c-7 -8 -10 -20 -6 -26 3 -5 3 -16 -2 -22 -4 -7 -8
-33 -9 -58 -2 -76 -4 -90 -13 -90 -21 0 -39 124 -20 135 5 4 7 11 3 17 -6 10
46 71 54 63 3 -2 -1 -11 -7 -19z m49 -60 c0 -3 -4 -8 -10 -11 -5 -3 -10 -1
-10 4 0 6 5 11 10 11 6 0 10 -2 10 -4z m-27 -109 c7 4 8 0 4 -11 -4 -10 -7
-20 -7 -22 0 -2 -4 -4 -9 -4 -5 0 -8 12 -8 28 0 15 2 21 4 14 3 -6 10 -9 16
-5z"/>
<path d="M1726 2133 c-6 -14 -5 -15 5 -6 7 7 10 15 7 18 -3 3 -9 -2 -12 -12z"/>
<path d="M1031 1474 c0 -11 3 -14 6 -6 3 7 2 16 -1 19 -3 4 -6 -2 -5 -13z"/>
<path d="M1021 1395 c-2 -28 -3 -29 -11 -7 -14 33 -21 27 -8 -9 13 -37 32 -25
25 17 l-4 29 -2 -30z"/>
<path d="M861 1351 c-19 -25 -27 -40 -17 -32 20 17 60 71 55 75 -2 2 -19 -17
-38 -43z"/>
<path d="M904 1209 c-3 -6 -1 -16 5 -22 8 -8 11 -5 11 11 0 24 -5 28 -16 11z"/>
<path d="M1630 2031 c0 -5 5 -13 10 -16 6 -3 10 -2 10 4 0 5 -4 13 -10 16 -5
3 -10 2 -10 -4z"/>
<path d="M1626 1997 c3 -10 9 -15 12 -12 3 3 0 11 -7 18 -10 9 -11 8 -5 -6z"/>
<path d="M1491 1950 c-1 -14 -4 -36 -6 -50 l-6 -25 11 25 c6 13 9 36 7 50 l-4
25 -2 -25z"/>
<path d="M915 839 c-4 -6 -5 -12 -2 -15 2 -3 7 2 10 11 7 17 1 20 -8 4z"/>
<path d="M999 793 c-32 -36 -53 -63 -47 -63 2 0 21 20 41 45 42 49 45 61 6 18z"/>
<path d="M1024 778 c-16 -18 -38 -44 -49 -58 -17 -21 -15 -20 13 4 18 17 32
24 32 17 0 -11 3 -11 15 -1 9 7 13 20 10 28 -3 8 0 21 6 28 23 27 2 13 -27
-18z"/>
<path d="M5105 1120 l-200 -5 -5 -45 c-3 -25 -11 -55 -18 -67 -16 -29 -60 -63
-82 -63 -10 0 -23 -6 -29 -14 -14 -17 -30 -227 -22 -288 5 -38 9 -43 33 -43
14 -1 33 -7 42 -14 18 -15 36 -72 36 -117 0 -31 1 -32 62 -38 34 -4 281 -9
548 -11 548 -5 530 -7 530 66 0 22 6 55 14 74 12 27 21 34 48 37 32 3 33 4 41
63 11 82 4 270 -11 288 -7 8 -31 17 -53 20 -63 8 -68 19 -57 117 l3 25 -205 7
c-372 12 -473 13 -675 8z m813 -36 c31 -6 33 -9 28 -35 -8 -40 12 -89 41 -100
13 -5 40 -9 59 -9 l34 0 0 -83 c0 -136 -11 -237 -26 -237 -30 0 -64 -45 -74
-100 -6 -30 -14 -57 -18 -61 -20 -20 -133 -22 -752 -16 l-325 3 -1 39 c-1 22
-9 58 -19 80 -10 22 -17 43 -17 47 1 4 -5 5 -13 2 -18 -7 -19 0 -4 28 9 16 8
19 -2 13 -9 -6 -11 -3 -6 9 4 10 3 15 -4 11 -5 -4 -7 -15 -4 -25 3 -11 0 -20
-9 -23 -18 -7 -30 8 -22 28 2 7 0 15 -7 18 -7 2 -3 14 11 32 17 21 19 30 10
36 -9 6 -9 11 1 23 10 12 10 16 2 16 -8 0 -10 8 -6 21 5 15 4 19 -4 15 -8 -5
-8 0 -1 19 7 17 7 24 0 20 -6 -4 -10 9 -10 30 0 29 4 36 18 34 35 -5 62 13
107 73 26 33 42 57 36 53 -7 -4 -11 4 -11 19 0 17 7 26 23 30 32 7 926 -2 965
-10z"/>
<path d="M5446 1034 c-21 -24 -41 -42 -44 -39 -3 3 3 14 13 25 10 11 16 20 13
20 -3 0 -23 -21 -44 -47 -26 -33 -29 -40 -11 -24 15 14 27 20 27 15 0 -12 -55
-67 -65 -64 -4 1 -10 -2 -13 -6 -4 -4 -1 -4 6 0 19 11 14 -4 -14 -41 -14 -19
-24 -36 -22 -39 5 -4 65 55 108 106 15 17 20 19 16 8 -8 -25 -3 -22 24 15 22
30 22 31 2 13 -12 -11 -22 -14 -22 -8 0 6 3 13 8 16 13 8 74 96 65 95 -4 0
-26 -21 -47 -45z"/>
<path d="M5641 970 c-34 -50 -61 -93 -59 -95 6 -7 130 165 126 175 -2 6 -32
-30 -67 -80z"/>
<path d="M5104 1008 l-19 -23 23 19 c12 11 22 21 22 23 0 8 -8 2 -26 -19z"/>
<path d="M5143 1008 c-15 -20 -25 -38 -20 -38 3 0 12 11 21 25 17 26 16 35 -1
13z"/>
<path d="M5112 868 c-7 -7 -12 -22 -12 -35 0 -32 -14 -29 -27 8 -15 40 -45 36
-58 -9 -5 -17 -12 -32 -15 -32 -3 0 -12 15 -20 33 -19 40 -57 49 -65 15 -3
-13 -5 -59 -3 -103 3 -74 5 -80 26 -83 18 -3 23 2 28 27 6 30 30 59 40 49 2
-3 7 -16 9 -29 11 -56 58 -63 70 -10 8 38 23 40 27 4 2 -22 8 -28 28 -28 18 0
26 6 28 23 2 14 10 22 23 22 23 0 25 -13 4 -30 -18 -15 -20 -35 -3 -24 7 4 8
3 4 -5 -4 -6 -12 -9 -17 -6 -8 6 -45 -41 -93 -116 -16 -25 -16 -28 -2 -23 30
11 147 167 140 186 -5 16 2 18 67 18 64 0 74 -3 95 -25 16 -17 34 -25 58 -25
25 0 40 7 54 25 18 22 27 25 89 25 67 0 69 -1 80 -30 9 -23 18 -30 37 -30 21
0 28 6 33 30 7 39 18 38 29 -1 11 -37 38 -59 54 -43 5 5 11 25 13 44 3 45 25
51 29 8 4 -39 45 -61 72 -38 25 20 22 160 -3 191 -16 20 -21 21 -35 10 -9 -7
-16 -24 -16 -38 0 -39 -34 -26 -38 15 -2 18 -9 35 -17 38 -23 9 -53 -14 -57
-43 -4 -34 -28 -43 -28 -11 -1 57 -48 65 -65 10 l-9 -32 -83 0 c-80 0 -84 1
-93 25 -16 43 -102 47 -115 5 -8 -26 -34 -32 -125 -28 -71 3 -75 4 -78 28 -7
45 -35 63 -60 38z m714 -38 c-6 -33 12 -53 46 -48 18 2 24 10 26 36 2 20 8 32
15 29 15 -4 21 -146 8 -166 -15 -23 -41 -5 -41 29 0 28 -3 31 -27 28 -21 -2
-29 -9 -31 -28 -6 -46 -11 -54 -27 -40 -8 7 -15 21 -15 31 0 19 -33 35 -50 24
-5 -3 -10 -15 -10 -25 0 -10 -4 -21 -9 -24 -13 -8 -33 20 -29 41 3 16 -6 18
-88 21 -89 3 -92 2 -108 -23 -22 -34 -76 -32 -91 3 -9 20 -16 22 -100 22 -112
0 -129 -5 -146 -38 l-14 -27 -3 38 c-3 33 -6 38 -25 35 -13 -2 -28 -16 -37
-35 -17 -36 -36 -33 -41 7 -6 39 -50 34 -69 -7 -18 -39 -26 -41 -34 -9 -7 28
4 146 13 146 15 0 31 -25 31 -48 0 -20 4 -23 28 -20 22 2 28 9 32 36 6 41 23
45 30 6 7 -41 43 -41 50 1 7 42 40 47 40 7 0 -49 17 -55 131 -47 92 7 101 9
109 30 12 30 26 38 56 31 17 -5 24 -13 24 -30 0 -22 4 -23 98 -29 83 -5 99 -4
110 10 6 9 12 25 12 35 0 20 29 25 31 6 1 -7 2 -22 3 -33 1 -14 8 -20 26 -20
20 0 26 5 28 30 3 31 28 59 44 48 6 -3 8 -18 4 -33z"/>
<path d="M5285 588 c-40 -63 -44 -89 -5 -35 13 17 34 46 47 63 15 20 18 31 10
31 -8 0 -31 -27 -52 -59z"/>
<path d="M5020 482 c-19 -2 -39 -8 -44 -13 -6 -5 26 -7 79 -4 48 2 90 6 92 9
6 6 -85 12 -127 8z"/>
<path d="M5164 472 c6 -10 42 -9 52 1 4 4 -7 7 -25 7 -18 0 -30 -4 -27 -8z"/>
<path d="M5295 470 c-7 -12 2 -12 30 0 19 8 19 9 -2 9 -12 1 -25 -3 -28 -9z"/>
<path d="M5497 469 c7 -7 15 -10 18 -7 3 3 -2 9 -12 12 -14 6 -15 5 -6 -5z"/>
</g>
</svg>
