<?xml version="1.0" encoding="UTF-8" standalone="no"?>
<!-- Created with Inkscape (http://www.inkscape.org/) -->

<svg
   xmlns:dc="http://purl.org/dc/elements/1.1/"
   xmlns:cc="http://creativecommons.org/ns#"
   xmlns:rdf="http://www.w3.org/1999/02/22-rdf-syntax-ns#"
   xmlns:svg="http://www.w3.org/2000/svg"
   xmlns="http://www.w3.org/2000/svg"
   xmlns:sodipodi="http://sodipodi.sourceforge.net/DTD/sodipodi-0.dtd"
   xmlns:inkscape="http://www.inkscape.org/namespaces/inkscape"
   width="453.07721"
   height="58.571491"
   id="svg2"
   version="1.1"
   inkscape:version="0.48.5 r10040"
   sodipodi:docname="moreira_logo.svg">
  <defs
     id="defs4" />
  <sodipodi:namedview
     id="base"
     pagecolor="#000000"
     bordercolor="#666666"
     borderopacity="1.0"
     inkscape:pageopacity="1"
     inkscape:pageshadow="2"
     inkscape:zoom="1.4"
     inkscape:cx="180.88283"
     inkscape:cy="3.4055178"
     inkscape:document-units="px"
     inkscape:current-layer="layer1"
     showgrid="false"
     inkscape:snap-page="false"
     showguides="true"
     inkscape:guide-bbox="true"
     inkscape:window-width="1536"
     inkscape:window-height="801"
     inkscape:window-x="760"
     inkscape:window-y="-8"
     inkscape:window-maximized="1"
     fit-margin-top="0"
     fit-margin-left="0"
     fit-margin-right="0"
     fit-margin-bottom="0"
     showborder="false"
     inkscape:showpageshadow="true" />
  <metadata
     id="metadata7">
    <rdf:RDF>
      <cc:Work
         rdf:about="">
        <dc:format>image/svg+xml</dc:format>
        <dc:type
           rdf:resource="http://purl.org/dc/dcmitype/StillImage" />
        <dc:title></dc:title>
      </cc:Work>
    </rdf:RDF>
  </metadata>
  <g
     inkscape:label="Layer 1"
     inkscape:groupmode="layer"
     id="layer1"
     transform="translate(-39.24098,-962.33081)">
    <rect
       style="fill:#ffffff;fill-opacity:1;stroke:none"
       id="rect3107"
       width="36.785713"
       height="3.9285715"
       x="274.59811"
       y="990.54517" />
    <rect
       style="fill:#ffffff;fill-opacity:1;stroke:none"
       id="rect3107-1"
       width="36.785713"
       height="3.9285715"
       x="274.95526"
       y="962.33081" />
    <rect
       style="fill:#ffffff;fill-opacity:1;stroke:none"
       id="rect3107-7"
       width="36.785713"
       height="3.9285715"
       x="274.59811"
       y="1016.9737" />
    <rect
       style="fill:#ffffff;fill-opacity:1;stroke:none"
       id="rect3143"
       width="4.6428571"
       height="58.571434"
       x="340.31241"
       y="962.33081" />
    <path
       style="fill:#ffffff;fill-opacity:1;stroke:none"
       d="m 378.92857,1020.9023 2.59698,0 2.59698,0 0,-11.0714 0,-11.0715 11.69926,0 7.65864,0 c 4.43519,7.2619 8.5556,14.6994 12.67302,22.1429 l 5.37933,0 -12.73963,-22.5144 c 6.38726,-2.6141 10.61302,-6.27335 10.66032,-17.29786 0.21923,-10.42544 -5.88243,-18.7592 -20.19337,-18.7592 l -19.32138,0 0,5.76342 c 0,0 12.87402,-0.10093 20.03548,0.007 9.88628,0.20461 14.63512,5.92913 14.43558,13.00644 -0.24183,8.57753 -6.44921,12.56931 -13.01268,12.6876 l -22.46853,0.4049 0,13.2247 z"
       id="path3147"
       inkscape:connector-curvature="0"
       sodipodi:nodetypes="cccccccccccccccssccc" />
    <path
       style="fill:#ffffff;fill-opacity:1;stroke:none"
       d="m 207.45517,1020.9023 2.59698,0 2.59698,0 0,-11.0714 0,-11.0715 11.69926,0 7.65864,0 c 4.43519,7.2619 8.5556,14.6994 12.67302,22.1429 l 5.37933,0 -12.73963,-22.5144 c 6.38726,-2.6141 10.61302,-6.27335 10.66032,-17.29786 0.21923,-10.42544 -5.88243,-18.7592 -20.19337,-18.7592 l -19.32138,0 0,5.76342 c 0,0 12.87402,-0.10093 20.03548,0.007 9.88628,0.20461 14.63512,5.92913 14.43558,13.00644 -0.24183,8.57753 -6.44921,12.56931 -13.01268,12.6876 l -22.46853,0.4049 0,13.2247 z"
       id="path3147-1"
       inkscape:connector-curvature="0"
       sodipodi:nodetypes="cccccccccccccccssccc" />
    <path
       style="fill:#ffffff;stroke:none"
       d="m 442.31564,1020.9023 0,0 5.80838,0 18.43528,-52.06933 19.69797,52.06933 6.06092,0 -22.8547,-58.57146 -6.06092,0 z"
       id="path3969"
       inkscape:connector-curvature="0"
       sodipodi:nodetypes="ccccccccc" />
    <path
       style="fill:#ffffff;fill-opacity:1;stroke:none"
       d="m 152.2633,962.3392 c -15.86428,0 -28.71875,13.1072 -28.71875,29.28125 0,16.17405 12.85447,29.28125 28.71875,29.28125 15.86428,0 28.71875,-13.1072 28.71875,-29.28125 0,-16.17405 -12.85447,-29.28125 -28.71875,-29.28125 z m -0.25,4.625 c 13.48995,0 24.40625,11.15289 24.40625,24.90625 0,13.75335 -10.9163,24.90625 -24.40625,24.90625 -13.48995,0 -24.4375,-11.1529 -24.4375,-24.90625 0,-13.75336 10.94755,-24.90625 24.4375,-24.90625 z"
       id="path4013"
       inkscape:connector-curvature="0" />
    <path
       style="fill:#ffffff;stroke:none"
       d="m 43.05285,1020.9023 -3.81187,0 0,-58.50905 28.39286,38.00695 28.39285,-38.00695 0,58.50905 -4.10771,0 0.12627,-47.64991 -24.41141,33.18561 -24.58099,-32.93307 z"
       id="path4102"
       inkscape:connector-curvature="0"
       sodipodi:nodetypes="ccccccccccc" />
  </g>
</svg>
